%
M48
M72
T01C0.0236
T02C0.0315
T03C0.0394
T04C0.0472
%
T01
X10359Y25383
X23351Y25383
X54501Y27105
X54316Y5345
T02
X33355Y7383
X32605Y7383
X31855Y7883
X31855Y6883
X28855Y9383
X24855Y9383
X26355Y6883
X27855Y3883
X27855Y2883
X26355Y2883
X17855Y1383
X16355Y2883
X14855Y4883
X17855Y5383
X16355Y6883
X14855Y8883
X12855Y8883
X12855Y7883
X12855Y9883
X14355Y11383
X16355Y12383
X14355Y15383
X12355Y15383
X11355Y15383
X11355Y17383
X12355Y17383
X8355Y17383
X7355Y17383
X5855Y18883
X5855Y14883
X6855Y12883
X6020Y11580
X10020Y11580
X10855Y12883
X16355Y16383
X24855Y15883
X28855Y15883
X31855Y17883
X32605Y18383
X33355Y18383
X31855Y18883
X28855Y19883
X24855Y19883
X31855Y23383
X32605Y23883
X33355Y23883
X31855Y24383
X31855Y26883
X33355Y26883
X31855Y30883
X25855Y30883
X25855Y26883
X33355Y21383
X33355Y15883
X31855Y13383
X32605Y12883
X33355Y12883
X31855Y12383
X33355Y10383
X5355Y7883
X4355Y7883
T03
X6855Y7883
X6855Y8883
X6855Y9883
X9855Y9883
X9855Y8883
X9855Y7883
X9855Y6883
X9855Y5883
X9855Y4883
X9855Y3883
X9855Y2883
X9855Y1883
X6855Y1883
X6855Y2883
X6855Y3883
X6855Y4883
X6855Y5883
X6855Y6883
X19855Y6883
X19855Y7883
X19855Y8883
X22855Y8883
X22855Y7883
X22855Y6883
X22855Y5883
X22855Y4883
X22855Y3883
X22855Y2883
X22855Y1883
X19855Y1883
X19855Y2883
X19855Y3883
X19855Y4883
X19855Y5883
X30355Y3883
X30355Y2883
X30355Y1883
X32855Y1883
X32855Y2883
X32855Y3883
X35355Y3883
X35355Y2883
X35355Y1883
X37855Y1883
X37855Y2883
X37855Y3883
X40355Y3883
X40355Y2883
X40355Y1883
X42855Y1883
X42855Y2883
X42855Y3883
X47855Y14883
X48855Y14883
X49855Y14883
X49855Y17383
X48855Y17383
X47855Y17383
X47855Y19883
X48855Y19883
X49855Y19883
X49855Y22383
X48855Y22383
X47855Y22383
X47855Y24883
X48855Y24883
X49855Y24883
X49855Y27383
X48855Y27383
X47855Y27383
X22855Y18883
X22855Y17883
X22855Y16883
X22855Y15883
X22855Y14883
X22855Y13883
X22855Y12883
X22855Y11883
X19855Y11883
X19855Y12883
X19855Y13883
X19855Y14883
X19855Y15883
X19855Y16883
X19855Y17883
X19855Y18883
X10355Y21383
X9355Y21383
X8355Y21383
X3855Y21383
X3855Y22383
X3855Y20383
X3855Y18383
X3855Y17383
X3855Y16383
T04
X3430Y1957
X34867Y7426
X34867Y10379
X34867Y12926
X34867Y15879
X34867Y18426
X34867Y21379
X34867Y23926
X34867Y26879
X40772Y26879
X42741Y26879
X44709Y26879
X44709Y23926
X42741Y23926
X40772Y23926
X40772Y21379
X42741Y21379
X44709Y21379
X44709Y18426
X42741Y18426
X40772Y18426
X40772Y15879
X42741Y15879
X44709Y15879
X44709Y12926
X42741Y12926
X40772Y12926
X40772Y10379
X42741Y10379
X44709Y10379
X44709Y7426
X42741Y7426
X40772Y7426
X52898Y9637
X52898Y13967
X52898Y18298
X52898Y22629
X55792Y30304
X19020Y26839
X14690Y26839
X3430Y30304
X55792Y1957
M30
