G75*
G70*
%OFA0B0*%
%FSLAX24Y24*%
%IPPOS*%
%LPD*%
%AMOC8*
5,1,8,0,0,1.08239X$1,22.5*
%
%ADD10C,0.0660*%
%ADD11C,0.0050*%
%ADD12C,0.0500*%
D10*
X006100Y007100D03*
X006100Y008100D03*
X006100Y009100D03*
X006100Y010100D03*
X011600Y010100D03*
X011600Y009100D03*
X011600Y008100D03*
X011600Y007100D03*
X017100Y007100D03*
X017100Y008100D03*
X017100Y009100D03*
X017100Y010100D03*
X022600Y010100D03*
X022600Y009100D03*
X022600Y008100D03*
X022600Y007100D03*
X028100Y007100D03*
X028100Y008100D03*
X028100Y009100D03*
X028100Y010100D03*
X033600Y010100D03*
X033600Y009100D03*
X033600Y008100D03*
X033600Y007100D03*
X039100Y007100D03*
X039100Y008100D03*
X039100Y009100D03*
X039100Y010100D03*
X044600Y010100D03*
X044600Y009100D03*
X044600Y008100D03*
X044600Y007100D03*
X027600Y016100D03*
X026600Y016100D03*
X025600Y016100D03*
X024600Y016100D03*
X023600Y016100D03*
X022600Y016100D03*
X021600Y016100D03*
X020600Y016100D03*
X019600Y016100D03*
X018600Y016100D03*
D11*
X000639Y003100D02*
X000642Y003221D01*
X000651Y003341D01*
X000666Y003461D01*
X000686Y003580D01*
X000713Y003698D01*
X000745Y003814D01*
X000783Y003929D01*
X000826Y004042D01*
X000875Y004152D01*
X000930Y004260D01*
X000989Y004365D01*
X001054Y004467D01*
X001123Y004566D01*
X001198Y004661D01*
X001277Y004753D01*
X001360Y004840D01*
X001447Y004923D01*
X001539Y005002D01*
X001634Y005077D01*
X001733Y005146D01*
X001835Y005211D01*
X001940Y005270D01*
X002048Y005325D01*
X002158Y005374D01*
X002271Y005417D01*
X002386Y005455D01*
X002502Y005487D01*
X002620Y005514D01*
X002739Y005534D01*
X002859Y005549D01*
X002979Y005558D01*
X003100Y005561D01*
X003221Y005558D01*
X003341Y005549D01*
X003461Y005534D01*
X003580Y005514D01*
X003698Y005487D01*
X003814Y005455D01*
X003929Y005417D01*
X004042Y005374D01*
X004152Y005325D01*
X004260Y005270D01*
X004365Y005211D01*
X004467Y005146D01*
X004566Y005077D01*
X004661Y005002D01*
X004753Y004923D01*
X004840Y004840D01*
X004923Y004753D01*
X005002Y004661D01*
X005077Y004566D01*
X005146Y004467D01*
X005211Y004365D01*
X005270Y004260D01*
X005325Y004152D01*
X005374Y004042D01*
X005417Y003929D01*
X005455Y003814D01*
X005487Y003698D01*
X005514Y003580D01*
X005534Y003461D01*
X005549Y003341D01*
X005558Y003221D01*
X005561Y003100D01*
X005558Y002979D01*
X005549Y002859D01*
X005534Y002739D01*
X005514Y002620D01*
X005487Y002502D01*
X005455Y002386D01*
X005417Y002271D01*
X005374Y002158D01*
X005325Y002048D01*
X005270Y001940D01*
X005211Y001835D01*
X005146Y001733D01*
X005077Y001634D01*
X005002Y001539D01*
X004923Y001447D01*
X004840Y001360D01*
X004753Y001277D01*
X004661Y001198D01*
X004566Y001123D01*
X004467Y001054D01*
X004365Y000989D01*
X004260Y000930D01*
X004152Y000875D01*
X004042Y000826D01*
X003929Y000783D01*
X003814Y000745D01*
X003698Y000713D01*
X003580Y000686D01*
X003461Y000666D01*
X003341Y000651D01*
X003221Y000642D01*
X003100Y000639D01*
X002979Y000642D01*
X002859Y000651D01*
X002739Y000666D01*
X002620Y000686D01*
X002502Y000713D01*
X002386Y000745D01*
X002271Y000783D01*
X002158Y000826D01*
X002048Y000875D01*
X001940Y000930D01*
X001835Y000989D01*
X001733Y001054D01*
X001634Y001123D01*
X001539Y001198D01*
X001447Y001277D01*
X001360Y001360D01*
X001277Y001447D01*
X001198Y001539D01*
X001123Y001634D01*
X001054Y001733D01*
X000989Y001835D01*
X000930Y001940D01*
X000875Y002048D01*
X000826Y002158D01*
X000783Y002271D01*
X000745Y002386D01*
X000713Y002502D01*
X000686Y002620D01*
X000666Y002739D01*
X000651Y002859D01*
X000642Y002979D01*
X000639Y003100D01*
X000639Y018600D02*
X000642Y018721D01*
X000651Y018841D01*
X000666Y018961D01*
X000686Y019080D01*
X000713Y019198D01*
X000745Y019314D01*
X000783Y019429D01*
X000826Y019542D01*
X000875Y019652D01*
X000930Y019760D01*
X000989Y019865D01*
X001054Y019967D01*
X001123Y020066D01*
X001198Y020161D01*
X001277Y020253D01*
X001360Y020340D01*
X001447Y020423D01*
X001539Y020502D01*
X001634Y020577D01*
X001733Y020646D01*
X001835Y020711D01*
X001940Y020770D01*
X002048Y020825D01*
X002158Y020874D01*
X002271Y020917D01*
X002386Y020955D01*
X002502Y020987D01*
X002620Y021014D01*
X002739Y021034D01*
X002859Y021049D01*
X002979Y021058D01*
X003100Y021061D01*
X003221Y021058D01*
X003341Y021049D01*
X003461Y021034D01*
X003580Y021014D01*
X003698Y020987D01*
X003814Y020955D01*
X003929Y020917D01*
X004042Y020874D01*
X004152Y020825D01*
X004260Y020770D01*
X004365Y020711D01*
X004467Y020646D01*
X004566Y020577D01*
X004661Y020502D01*
X004753Y020423D01*
X004840Y020340D01*
X004923Y020253D01*
X005002Y020161D01*
X005077Y020066D01*
X005146Y019967D01*
X005211Y019865D01*
X005270Y019760D01*
X005325Y019652D01*
X005374Y019542D01*
X005417Y019429D01*
X005455Y019314D01*
X005487Y019198D01*
X005514Y019080D01*
X005534Y018961D01*
X005549Y018841D01*
X005558Y018721D01*
X005561Y018600D01*
X005558Y018479D01*
X005549Y018359D01*
X005534Y018239D01*
X005514Y018120D01*
X005487Y018002D01*
X005455Y017886D01*
X005417Y017771D01*
X005374Y017658D01*
X005325Y017548D01*
X005270Y017440D01*
X005211Y017335D01*
X005146Y017233D01*
X005077Y017134D01*
X005002Y017039D01*
X004923Y016947D01*
X004840Y016860D01*
X004753Y016777D01*
X004661Y016698D01*
X004566Y016623D01*
X004467Y016554D01*
X004365Y016489D01*
X004260Y016430D01*
X004152Y016375D01*
X004042Y016326D01*
X003929Y016283D01*
X003814Y016245D01*
X003698Y016213D01*
X003580Y016186D01*
X003461Y016166D01*
X003341Y016151D01*
X003221Y016142D01*
X003100Y016139D01*
X002979Y016142D01*
X002859Y016151D01*
X002739Y016166D01*
X002620Y016186D01*
X002502Y016213D01*
X002386Y016245D01*
X002271Y016283D01*
X002158Y016326D01*
X002048Y016375D01*
X001940Y016430D01*
X001835Y016489D01*
X001733Y016554D01*
X001634Y016623D01*
X001539Y016698D01*
X001447Y016777D01*
X001360Y016860D01*
X001277Y016947D01*
X001198Y017039D01*
X001123Y017134D01*
X001054Y017233D01*
X000989Y017335D01*
X000930Y017440D01*
X000875Y017548D01*
X000826Y017658D01*
X000783Y017771D01*
X000745Y017886D01*
X000713Y018002D01*
X000686Y018120D01*
X000666Y018239D01*
X000651Y018359D01*
X000642Y018479D01*
X000639Y018600D01*
X041639Y018600D02*
X041642Y018721D01*
X041651Y018841D01*
X041666Y018961D01*
X041686Y019080D01*
X041713Y019198D01*
X041745Y019314D01*
X041783Y019429D01*
X041826Y019542D01*
X041875Y019652D01*
X041930Y019760D01*
X041989Y019865D01*
X042054Y019967D01*
X042123Y020066D01*
X042198Y020161D01*
X042277Y020253D01*
X042360Y020340D01*
X042447Y020423D01*
X042539Y020502D01*
X042634Y020577D01*
X042733Y020646D01*
X042835Y020711D01*
X042940Y020770D01*
X043048Y020825D01*
X043158Y020874D01*
X043271Y020917D01*
X043386Y020955D01*
X043502Y020987D01*
X043620Y021014D01*
X043739Y021034D01*
X043859Y021049D01*
X043979Y021058D01*
X044100Y021061D01*
X044221Y021058D01*
X044341Y021049D01*
X044461Y021034D01*
X044580Y021014D01*
X044698Y020987D01*
X044814Y020955D01*
X044929Y020917D01*
X045042Y020874D01*
X045152Y020825D01*
X045260Y020770D01*
X045365Y020711D01*
X045467Y020646D01*
X045566Y020577D01*
X045661Y020502D01*
X045753Y020423D01*
X045840Y020340D01*
X045923Y020253D01*
X046002Y020161D01*
X046077Y020066D01*
X046146Y019967D01*
X046211Y019865D01*
X046270Y019760D01*
X046325Y019652D01*
X046374Y019542D01*
X046417Y019429D01*
X046455Y019314D01*
X046487Y019198D01*
X046514Y019080D01*
X046534Y018961D01*
X046549Y018841D01*
X046558Y018721D01*
X046561Y018600D01*
X046558Y018479D01*
X046549Y018359D01*
X046534Y018239D01*
X046514Y018120D01*
X046487Y018002D01*
X046455Y017886D01*
X046417Y017771D01*
X046374Y017658D01*
X046325Y017548D01*
X046270Y017440D01*
X046211Y017335D01*
X046146Y017233D01*
X046077Y017134D01*
X046002Y017039D01*
X045923Y016947D01*
X045840Y016860D01*
X045753Y016777D01*
X045661Y016698D01*
X045566Y016623D01*
X045467Y016554D01*
X045365Y016489D01*
X045260Y016430D01*
X045152Y016375D01*
X045042Y016326D01*
X044929Y016283D01*
X044814Y016245D01*
X044698Y016213D01*
X044580Y016186D01*
X044461Y016166D01*
X044341Y016151D01*
X044221Y016142D01*
X044100Y016139D01*
X043979Y016142D01*
X043859Y016151D01*
X043739Y016166D01*
X043620Y016186D01*
X043502Y016213D01*
X043386Y016245D01*
X043271Y016283D01*
X043158Y016326D01*
X043048Y016375D01*
X042940Y016430D01*
X042835Y016489D01*
X042733Y016554D01*
X042634Y016623D01*
X042539Y016698D01*
X042447Y016777D01*
X042360Y016860D01*
X042277Y016947D01*
X042198Y017039D01*
X042123Y017134D01*
X042054Y017233D01*
X041989Y017335D01*
X041930Y017440D01*
X041875Y017548D01*
X041826Y017658D01*
X041783Y017771D01*
X041745Y017886D01*
X041713Y018002D01*
X041686Y018120D01*
X041666Y018239D01*
X041651Y018359D01*
X041642Y018479D01*
X041639Y018600D01*
D12*
X033100Y014100D02*
X033100Y013100D01*
X037600Y013100D01*
X037600Y012100D01*
X042100Y012100D01*
X042100Y010100D01*
X044600Y010100D01*
X045600Y010100D01*
X045600Y008100D01*
X044600Y008100D01*
X034600Y008100D01*
X034600Y010100D01*
X033600Y010100D01*
X033600Y009100D02*
X030100Y009100D01*
X030100Y011100D01*
X025600Y011100D01*
X025600Y012100D01*
X023600Y012100D01*
X023600Y016100D01*
X024600Y016100D02*
X024600Y013100D01*
X026600Y013100D01*
X026600Y012100D01*
X031100Y012100D01*
X031100Y011100D01*
X035600Y011100D01*
X035600Y009100D01*
X039100Y009100D01*
X039100Y010100D02*
X040100Y010100D01*
X040100Y008100D01*
X039100Y008100D01*
X041100Y009100D02*
X041100Y011100D01*
X036600Y011100D01*
X036600Y012100D01*
X032100Y012100D01*
X032100Y013100D01*
X027600Y013100D01*
X027600Y014100D01*
X025600Y014100D01*
X025600Y016100D01*
X026600Y016100D02*
X026600Y017100D01*
X017600Y017100D01*
X017600Y013100D01*
X013100Y013100D01*
X013100Y012100D01*
X008600Y012100D01*
X008600Y011100D01*
X004100Y011100D01*
X004100Y007100D01*
X006100Y007100D01*
X010600Y007100D01*
X011600Y007100D01*
X044600Y007100D01*
X044600Y009100D02*
X041100Y009100D01*
X034600Y008100D02*
X033600Y008100D01*
X029100Y008100D01*
X029100Y010100D01*
X028100Y010100D01*
X028100Y009100D02*
X024600Y009100D01*
X024600Y011100D01*
X022600Y011100D01*
X022600Y016100D01*
X021600Y016100D02*
X021600Y009100D01*
X022600Y009100D01*
X022600Y010100D02*
X023600Y010100D01*
X023600Y008100D01*
X022600Y008100D01*
X020600Y009100D02*
X020600Y016100D01*
X019600Y016100D02*
X019600Y011100D01*
X015100Y011100D01*
X015100Y009100D01*
X011600Y009100D01*
X011600Y010100D02*
X010600Y010100D01*
X010600Y008100D01*
X011600Y008100D01*
X017100Y008100D01*
X028100Y008100D01*
X029100Y008100D01*
X020600Y009100D02*
X017100Y009100D01*
X017100Y010100D02*
X016100Y010100D01*
X016100Y008100D01*
X017100Y008100D01*
X011600Y008100D02*
X006100Y008100D01*
X005100Y008100D01*
X005100Y010100D01*
X006100Y010100D01*
X006100Y009100D02*
X009600Y009100D01*
X009600Y011100D01*
X014100Y011100D01*
X014100Y012100D01*
X018600Y012100D01*
X018600Y016100D01*
X027600Y016100D02*
X027600Y015100D01*
X028600Y015100D01*
X028600Y014100D01*
X033100Y014100D01*
M02*
