G75*
G70*
%OFA0B0*%
%FSLAX24Y24*%
%IPPOS*%
%LPD*%
%AMOC8*
5,1,8,0,0,1.08239X$1,22.5*
%
%ADD10C,0.0740*%
%ADD11C,0.0552*%
D10*
X006100Y007100D03*
X006100Y008100D03*
X006100Y009100D03*
X006100Y010100D03*
X011600Y010100D03*
X011600Y009100D03*
X011600Y008100D03*
X011600Y007100D03*
X017100Y007100D03*
X017100Y008100D03*
X017100Y009100D03*
X017100Y010100D03*
X022600Y010100D03*
X022600Y009100D03*
X022600Y008100D03*
X022600Y007100D03*
X028100Y007100D03*
X028100Y008100D03*
X028100Y009100D03*
X028100Y010100D03*
X033600Y010100D03*
X033600Y009100D03*
X033600Y008100D03*
X033600Y007100D03*
X039100Y007100D03*
X039100Y008100D03*
X039100Y009100D03*
X039100Y010100D03*
X044600Y010100D03*
X044600Y009100D03*
X044600Y008100D03*
X044600Y007100D03*
X027600Y016100D03*
X026600Y016100D03*
X025600Y016100D03*
X024600Y016100D03*
X023600Y016100D03*
X022600Y016100D03*
X021600Y016100D03*
X020600Y016100D03*
X019600Y016100D03*
X018600Y016100D03*
D11*
X003100Y003100D03*
X003100Y018600D03*
X044100Y018600D03*
X044100Y003100D03*
M02*
