G75*
G70*
%OFA0B0*%
%FSLAX24Y24*%
%IPPOS*%
%LPD*%
%AMOC8*
5,1,8,0,0,1.08239X$1,22.5*
%
%ADD10C,0.0660*%
%ADD11C,0.0050*%
D10*
X006100Y007100D03*
X006100Y008100D03*
X006100Y009100D03*
X006100Y010100D03*
X011600Y010100D03*
X011600Y009100D03*
X011600Y008100D03*
X011600Y007100D03*
X017100Y007100D03*
X017100Y008100D03*
X017100Y009100D03*
X017100Y010100D03*
X022600Y010100D03*
X022600Y009100D03*
X022600Y008100D03*
X022600Y007100D03*
X028100Y007100D03*
X028100Y008100D03*
X028100Y009100D03*
X028100Y010100D03*
X033600Y010100D03*
X033600Y009100D03*
X033600Y008100D03*
X033600Y007100D03*
X039100Y007100D03*
X039100Y008100D03*
X039100Y009100D03*
X039100Y010100D03*
X044600Y010100D03*
X044600Y009100D03*
X044600Y008100D03*
X044600Y007100D03*
X027600Y016100D03*
X026600Y016100D03*
X025600Y016100D03*
X024600Y016100D03*
X023600Y016100D03*
X022600Y016100D03*
X021600Y016100D03*
X020600Y016100D03*
X019600Y016100D03*
X018600Y016100D03*
D11*
X041639Y003100D02*
X041642Y003221D01*
X041651Y003341D01*
X041666Y003461D01*
X041686Y003580D01*
X041713Y003698D01*
X041745Y003814D01*
X041783Y003929D01*
X041826Y004042D01*
X041875Y004152D01*
X041930Y004260D01*
X041989Y004365D01*
X042054Y004467D01*
X042123Y004566D01*
X042198Y004661D01*
X042277Y004753D01*
X042360Y004840D01*
X042447Y004923D01*
X042539Y005002D01*
X042634Y005077D01*
X042733Y005146D01*
X042835Y005211D01*
X042940Y005270D01*
X043048Y005325D01*
X043158Y005374D01*
X043271Y005417D01*
X043386Y005455D01*
X043502Y005487D01*
X043620Y005514D01*
X043739Y005534D01*
X043859Y005549D01*
X043979Y005558D01*
X044100Y005561D01*
X044221Y005558D01*
X044341Y005549D01*
X044461Y005534D01*
X044580Y005514D01*
X044698Y005487D01*
X044814Y005455D01*
X044929Y005417D01*
X045042Y005374D01*
X045152Y005325D01*
X045260Y005270D01*
X045365Y005211D01*
X045467Y005146D01*
X045566Y005077D01*
X045661Y005002D01*
X045753Y004923D01*
X045840Y004840D01*
X045923Y004753D01*
X046002Y004661D01*
X046077Y004566D01*
X046146Y004467D01*
X046211Y004365D01*
X046270Y004260D01*
X046325Y004152D01*
X046374Y004042D01*
X046417Y003929D01*
X046455Y003814D01*
X046487Y003698D01*
X046514Y003580D01*
X046534Y003461D01*
X046549Y003341D01*
X046558Y003221D01*
X046561Y003100D01*
X046558Y002979D01*
X046549Y002859D01*
X046534Y002739D01*
X046514Y002620D01*
X046487Y002502D01*
X046455Y002386D01*
X046417Y002271D01*
X046374Y002158D01*
X046325Y002048D01*
X046270Y001940D01*
X046211Y001835D01*
X046146Y001733D01*
X046077Y001634D01*
X046002Y001539D01*
X045923Y001447D01*
X045840Y001360D01*
X045753Y001277D01*
X045661Y001198D01*
X045566Y001123D01*
X045467Y001054D01*
X045365Y000989D01*
X045260Y000930D01*
X045152Y000875D01*
X045042Y000826D01*
X044929Y000783D01*
X044814Y000745D01*
X044698Y000713D01*
X044580Y000686D01*
X044461Y000666D01*
X044341Y000651D01*
X044221Y000642D01*
X044100Y000639D01*
X043979Y000642D01*
X043859Y000651D01*
X043739Y000666D01*
X043620Y000686D01*
X043502Y000713D01*
X043386Y000745D01*
X043271Y000783D01*
X043158Y000826D01*
X043048Y000875D01*
X042940Y000930D01*
X042835Y000989D01*
X042733Y001054D01*
X042634Y001123D01*
X042539Y001198D01*
X042447Y001277D01*
X042360Y001360D01*
X042277Y001447D01*
X042198Y001539D01*
X042123Y001634D01*
X042054Y001733D01*
X041989Y001835D01*
X041930Y001940D01*
X041875Y002048D01*
X041826Y002158D01*
X041783Y002271D01*
X041745Y002386D01*
X041713Y002502D01*
X041686Y002620D01*
X041666Y002739D01*
X041651Y002859D01*
X041642Y002979D01*
X041639Y003100D01*
M02*
