%
M48
M72
T01C0.0394
T02C0.0472
%
T01
X6100Y7100
X6100Y8100
X6100Y9100
X6100Y10100
X11600Y10100
X11600Y9100
X11600Y8100
X11600Y7100
X17100Y7100
X17100Y8100
X17100Y9100
X17100Y10100
X22600Y10100
X22600Y9100
X22600Y8100
X22600Y7100
X28100Y7100
X28100Y8100
X28100Y9100
X28100Y10100
X33600Y10100
X33600Y9100
X33600Y8100
X33600Y7100
X39100Y7100
X39100Y8100
X39100Y9100
X39100Y10100
X44600Y10100
X44600Y9100
X44600Y8100
X44600Y7100
X27600Y16100
X26600Y16100
X25600Y16100
X24600Y16100
X23600Y16100
X22600Y16100
X21600Y16100
X20600Y16100
X19600Y16100
X18600Y16100
T02
X3100Y3100
X3100Y18600
X44100Y18600
X44100Y3100
M30
