%
M48
M72
T01C0.0315
T02C0.0394
T03C0.0472
%
T01
X1995Y8723
X2995Y8723
X5995Y10223
X5995Y14223
X4495Y14223
X4495Y15223
X2995Y15723
X1995Y15723
X15995Y7723
X15995Y6223
X19995Y6223
X19995Y7723
X20995Y15723
X20995Y17723
X16995Y17723
X16995Y15723
X19995Y22723
X23995Y22723
T02
X21995Y21723
X21995Y20723
X21995Y19723
X21995Y23723
X21995Y24723
X21995Y25723
X17995Y23723
X15995Y23723
X14495Y23723
X12495Y23723
X10995Y23723
X8995Y23723
X8995Y20723
X10995Y20723
X12495Y20723
X14495Y20723
X15995Y20723
X17995Y20723
X14495Y17723
X12495Y17723
X11995Y13723
X12995Y13723
X13995Y13723
X14995Y13723
X15995Y13723
X16995Y13723
X17995Y13723
X18995Y13723
X19995Y13723
X20995Y13723
X21995Y13723
X24495Y14223
X24495Y15223
X21995Y10723
X22995Y9723
X20995Y10723
X19995Y10723
X18995Y10723
X17995Y10723
X16995Y10723
X15995Y10723
X14995Y10723
X13995Y10723
X12995Y10723
X11995Y10723
X10995Y10723
X9995Y10723
X8995Y10723
X8995Y8723
X7995Y8723
X6995Y5223
X5995Y5223
X9495Y4223
X10495Y4223
X11495Y4223
X12495Y4223
X13495Y4223
X14495Y4223
X16995Y4223
X17995Y4223
X18995Y4223
X19995Y4223
X20995Y4223
X21995Y4223
X22995Y6723
X24995Y6723
X24995Y9723
X10995Y13723
X9995Y13723
X8995Y13723
X5495Y20223
X5495Y21223
X5495Y22223
X5495Y23223
X5495Y24223
X5495Y25223
X12495Y26723
X14495Y26723
X1995Y13223
X1995Y12223
X1995Y11223
T03
X1405Y1405
X1495Y5223
X2495Y5223
X3495Y5223
X1405Y27389
X25814Y27389
X25814Y1405
M30
