%
M48
M72
T01C0.0315
T02C0.0394
T03C0.0472
%
T01
X10973Y9651
X10973Y10651
X12973Y11651
X10973Y13151
X9973Y13151
X8973Y11651
X9973Y15151
X10973Y15151
X6473Y15151
X5473Y15151
X7473Y20151
X7473Y21151
X11473Y21151
X11473Y20151
X13973Y19151
X13973Y21151
X16473Y22651
X17473Y22651
X17973Y21151
X17973Y19151
X17473Y24651
X16473Y24651
X12473Y24651
X11473Y24651
X25973Y12100
X25973Y11100
X24473Y8151
X20473Y8151
X32973Y6651
X32973Y10651
T02
X4516Y1537
X9473Y3151
X10973Y3151
X12473Y3151
X14473Y4651
X14473Y5651
X14473Y6651
X14473Y7651
X14473Y8651
X14473Y9651
X14473Y10651
X14473Y11651
X14473Y12651
X14473Y13651
X14473Y14651
X14473Y15651
X14473Y16651
X14473Y17651
X17473Y17651
X17473Y16651
X17473Y15651
X17473Y14651
X17473Y13651
X17473Y12651
X17473Y11651
X17473Y10651
X17473Y9651
X17473Y8651
X17473Y7651
X17473Y6651
X17473Y5651
X17473Y4651
X20473Y7151
X21473Y7151
X22473Y7151
X24973Y7151
X25973Y7151
X26973Y7151
X29473Y7151
X30473Y7151
X31473Y7151
X30973Y10151
X30973Y11651
X30973Y13151
X28473Y13151
X28473Y11651
X28473Y10151
X27473Y15651
X27473Y16651
X27473Y17651
X27473Y18651
X27473Y19651
X27473Y20651
X27973Y23151
X27973Y24151
X27973Y25151
X27973Y26151
X34831Y27883
X15473Y27151
X14473Y27151
X13473Y27151
X6473Y25151
X6473Y24151
X4516Y28128
X4473Y20151
X4473Y18151
X6973Y17651
X7973Y17651
X8973Y17651
X4473Y12151
X4473Y9651
X9473Y5151
X10973Y5151
X12473Y5151
X10973Y7659
X10973Y8643
X34831Y1718
T03
X8973Y24151
X8973Y25151
X8973Y26151
M30
