%
M48
M72
T01C0.0315
T02C0.0394
T03C0.0472
T04C0.0512
%
T01
X10500Y9957
X12500Y9957
X8500Y10957
X7500Y10957
X10500Y13957
X12500Y13957
X11000Y16457
X12000Y17957
X13000Y17957
X13000Y19957
X12000Y19957
X7000Y16457
X7500Y14957
X8500Y14957
X16500Y8457
X20500Y8457
X25000Y15957
X26000Y15957
X24000Y18457
X28000Y18457
T02
X22500Y17957
X22500Y16957
X22500Y15957
X22500Y14957
X22500Y13957
X23500Y12957
X23500Y11957
X23500Y10957
X22500Y9957
X23500Y8957
X23500Y7957
X23500Y6957
X21500Y5957
X20500Y5957
X19500Y5957
X18500Y5957
X16500Y5957
X15500Y5957
X14500Y5957
X13500Y5957
X11500Y5957
X10500Y5957
X14000Y9957
X17000Y9957
X17000Y10957
X17000Y11957
X17000Y12957
X17000Y13957
X17000Y14957
X17000Y15957
X17000Y16957
X17000Y17957
X17000Y18957
X17000Y19957
X17000Y20957
X17000Y21957
X17000Y22957
X15000Y22957
X15000Y21957
X15000Y20957
X15000Y19957
X15000Y18957
X15000Y17957
X15000Y16957
X15000Y15957
X15000Y14957
X14000Y13957
X20000Y13957
X20000Y12957
X20000Y11957
X20000Y10957
X20000Y9957
X20000Y14957
X20000Y15957
X21000Y15957
X20000Y16957
X20000Y17957
X20000Y18957
X20000Y19957
X20000Y20957
X20000Y21957
X20000Y22957
X22500Y21957
X22500Y20957
X22500Y19957
X22500Y18957
X13000Y22957
X11000Y22957
X10000Y22957
X9000Y22957
X13000Y24957
X5500Y19457
X5500Y18457
X5500Y14957
X5500Y13957
X5500Y11957
X5500Y10957
X5500Y8957
X5500Y7957
T03
X5000Y2957
X8000Y19457
X9000Y19457
X10000Y19457
X5000Y23457
X26500Y23457
X26500Y2957
T04
X15000Y23957
M30
