%
M48
M72
T01C0.0315
T02C0.0394
T03C0.0472
%
T01
X16115Y15615
X16115Y16615
X19115Y18115
X17115Y20115
X20115Y22615
X21115Y22615
X21115Y24615
X20115Y24615
X17115Y24615
X16115Y24615
X21115Y20115
X23115Y18115
X26115Y21615
X25115Y23615
X29115Y23615
X30115Y21615
X23615Y13615
X23615Y12615
X23615Y11615
X25115Y11615
X25115Y10115
X25115Y8615
X29115Y8615
X29115Y10115
X29115Y11615
X10115Y24115
X10115Y28115
T02
X9115Y28615
X8115Y28615
X7115Y28615
X11115Y28615
X12115Y28615
X13115Y28615
X17115Y27115
X18115Y27115
X19115Y27115
X31615Y25615
X31615Y24615
X31615Y23615
X31615Y22615
X31615Y21615
X31615Y20615
X31615Y19615
X31615Y18615
X34615Y18615
X34615Y19615
X34615Y20615
X34615Y21615
X34615Y22615
X34615Y23615
X34615Y24615
X34615Y25615
X39115Y23115
X39115Y22115
X39115Y21115
X39115Y20115
X39115Y19115
X39115Y18115
X39115Y17115
X39115Y16115
X34615Y15615
X34615Y14615
X34615Y13615
X34615Y12615
X34615Y11615
X34615Y10615
X34615Y9615
X34615Y8615
X31615Y8615
X31615Y9615
X31615Y10615
X31615Y11615
X31615Y12615
X31615Y13615
X31615Y14615
X31615Y15615
X22115Y15115
X22115Y14115
X22115Y13115
X22115Y12115
X22115Y11115
X22115Y10115
X22115Y9115
X22115Y8115
X22115Y7115
X19115Y7115
X19115Y8115
X19115Y9115
X19115Y10115
X19115Y11115
X19115Y12115
X19115Y13115
X19115Y14115
X19115Y15115
T03
X2084Y2084
X2084Y30430
X40667Y30430
X40667Y2084
M30
