%
M48
M72
T01C0.0236
T02C0.0315
T03C0.0394
T04C0.0472
%
T01
X8068Y3422
X29827Y3237
X34205Y10119
X34205Y23111
X29642Y29843
X7883Y30028
T02
X12355Y26633
X11855Y25883
X12855Y25883
X13855Y26583
X13355Y24383
X11355Y22383
X11355Y21383
X8855Y22383
X8855Y23383
X6855Y23383
X5855Y23383
X3855Y23383
X2855Y23383
X5855Y21383
X7355Y21383
X7355Y20383
X8855Y19383
X10355Y18383
X7355Y16383
X5855Y17383
X8855Y15383
X10355Y14383
X17555Y13383
X18555Y13383
X18555Y12383
X17555Y12383
X17555Y11383
X18555Y11383
X18555Y10383
X17555Y10383
X18355Y7383
X18855Y6633
X19355Y7383
X17355Y6883
X14355Y6883
X22355Y6883
X24155Y8883
X25555Y8883
X26855Y8883
X28355Y8883
X27355Y7383
X26855Y6633
X26355Y7383
X25355Y6883
X25555Y12883
X24155Y12883
X26855Y12883
X28355Y12883
X18355Y15383
X18355Y16383
X18355Y17383
X16355Y21383
X16355Y22383
X15355Y22383
X17355Y24383
X18355Y24383
X19855Y25883
X20355Y26633
X20855Y25883
X22355Y26583
X22355Y24383
X25355Y26583
X26855Y26383
X28355Y26383
X28355Y22383
X26855Y22383
X16855Y26583
T03
X23855Y21383
X23855Y20383
X23855Y19383
X23855Y18383
X23855Y17383
X23855Y16383
X23855Y15383
X23855Y14383
X26855Y14383
X26855Y15383
X26855Y16383
X26855Y17383
X26855Y18383
X26855Y19383
X26855Y20383
X26855Y21383
X16355Y18383
X16355Y17383
X16355Y16383
X16355Y15383
X16355Y14383
X16355Y13383
X16355Y12383
X16355Y11383
X16355Y10383
X13355Y10383
X13355Y11383
X13355Y12383
X13355Y13383
X13355Y14383
X13355Y15383
X13355Y16383
X13355Y17383
X13355Y18383
X5855Y25883
X4855Y25883
X3855Y25883
X3855Y19383
X3855Y18383
X3855Y17383
X3855Y16383
X3855Y15383
X3855Y14383
X3855Y10383
X3855Y9383
X3855Y8383
T04
X1930Y1957
X12359Y4839
X16690Y4839
X21020Y4839
X25351Y4839
X35788Y1957
X32749Y14450
X32749Y18780
X25351Y28426
X21020Y28426
X16690Y28426
X12359Y28426
X1930Y31091
X35788Y31091
M30
