%
M48
M72
T01C0.0236
T02C0.0315
T03C0.0394
T04C0.0472
%
T01
X13461Y26457
X13461Y29957
T02
X14961Y28957
X15961Y28957
X16461Y27457
X14461Y27457
X12461Y27457
X12461Y28457
X9961Y25457
X9961Y24457
X8461Y24457
X8461Y25457
X8461Y27457
X8461Y28457
X14461Y24457
X16461Y24457
X16461Y22957
X17461Y22957
X18461Y24457
X20461Y24457
X20461Y27457
X20961Y28457
X19461Y28957
X18461Y28957
X18461Y27457
X13961Y22957
X12961Y22957
X13961Y20457
X15461Y17957
X15461Y15957
X15461Y13957
X16961Y11457
X16961Y10457
X20461Y12957
X20461Y14957
X20461Y15957
X20461Y16957
X20461Y18957
X24461Y18957
X24461Y16957
X24461Y15957
X24461Y14957
X26461Y13457
X24461Y12957
X26461Y8457
X22461Y8457
X30461Y13457
X40921Y6170
X37461Y5457
X37461Y1457
X13461Y1957
X13461Y2957
X9961Y6457
X8961Y6457
X8961Y8957
X9961Y8957
X10461Y10957
X6461Y10957
X11461Y13957
X11461Y15957
X9461Y17457
X9461Y18457
X9461Y19457
X9961Y20457
X9461Y21957
X5461Y21957
X3961Y21957
X2961Y21957
X11461Y17957
X24961Y28457
X31461Y28457
X32461Y28457
X32461Y24457
X31461Y24457
X41106Y27930
T03
X36461Y23957
X34961Y23957
X33461Y23957
X33461Y21457
X34961Y21457
X36461Y21457
X36461Y18957
X34961Y18957
X33461Y18957
X30461Y19457
X28961Y19457
X27461Y19457
X27461Y21957
X28961Y21957
X30461Y21957
X30461Y24457
X28961Y24457
X27461Y24457
X19461Y19957
X19461Y18957
X19461Y17957
X19461Y16957
X19461Y15957
X19461Y14957
X19461Y13957
X19461Y12957
X16461Y12957
X15961Y11957
X15961Y10957
X15961Y9957
X15961Y8957
X15961Y7957
X15961Y6957
X15961Y5957
X12961Y5957
X12961Y6957
X12961Y7957
X12961Y8957
X12961Y9957
X12961Y10957
X12961Y11957
X16461Y13957
X16461Y14957
X16461Y15957
X16461Y16957
X16461Y17957
X16461Y18957
X16461Y19957
X7961Y19457
X7961Y20457
X4961Y20457
X4961Y19457
X4961Y18457
X4961Y17457
X4961Y16457
X4961Y15457
X4961Y14457
X4961Y13457
X4961Y12457
X7961Y12457
X7961Y13457
X7961Y14457
X7961Y15457
X7961Y16457
X7961Y17457
X7961Y18457
X7461Y25457
X7461Y26457
X7461Y27457
X7461Y28457
X4461Y28457
X4461Y27457
X4461Y26457
X4461Y25457
X6461Y9957
X6461Y8957
X6461Y7957
X6461Y6457
X6461Y5457
X6461Y4457
X8961Y2457
X9961Y2457
X10961Y2457
X27461Y4457
X28961Y4457
X30461Y4457
X33461Y4457
X34961Y4457
X36461Y4457
X36461Y6957
X34961Y6957
X33461Y6957
X30461Y6957
X28961Y6957
X27461Y6957
X27461Y9457
X28961Y9457
X30461Y9457
X30461Y11957
X28961Y11957
X27461Y11957
X33461Y11957
X34961Y11957
X36461Y11957
X36461Y9457
X34961Y9457
X33461Y9457
X33461Y16457
X34961Y16457
X36461Y16457
X30461Y16957
X28961Y16957
X27461Y16957
T04
X2961Y1957
X39504Y10461
X39504Y14792
X39504Y19123
X39504Y23454
X42461Y30957
X2961Y30957
X42461Y1957
M30
