%
M48
M72
T01C0.0315
T02C0.0394
%
T01
X5506Y3643
X6506Y3643
X6406Y5612
X5606Y5612
X5606Y8368
X6406Y8368
X8761Y9517
X8761Y13517
X10305Y3643
X14305Y3643
T02
X1281Y1281
X3250Y6187
X3250Y7187
X3250Y8187
X6324Y11017
X6324Y12017
X5037Y15454
X4037Y15454
X3037Y15454
X8761Y18104
X8761Y19104
X10805Y18986
X10805Y17986
X10805Y16986
X10805Y15986
X10805Y14986
X10805Y13986
X10805Y12986
X10805Y11986
X10805Y10986
X10805Y9986
X10805Y8986
X10805Y7986
X10805Y6986
X13805Y6986
X13805Y7986
X13805Y8986
X13805Y9986
X13805Y10986
X13805Y11986
X13805Y12986
X13805Y13986
X13805Y14986
X13805Y15986
X13805Y16986
X13805Y17986
X13805Y18986
X13805Y19986
X10805Y19986
X1281Y20572
X15848Y6899
X15848Y5899
X18391Y6324
X19391Y6324
X20391Y6324
X22722Y6324
X23722Y6324
X24722Y6324
X23009Y8592
X23009Y9592
X23009Y10592
X23009Y11592
X23009Y12592
X23009Y13592
X23009Y14592
X23009Y15592
X23009Y16592
X23009Y17592
X27659Y20572
X27659Y1281
M30
