%
M48
M72
T01C0.0315
T02C0.0394
T03C0.0472
%
T01
X8723Y2733
X8723Y6733
X11899Y7702
X15042Y8914
X15042Y9914
X15042Y10914
X15042Y12808
X15042Y13808
X13042Y13708
X13042Y12908
X11899Y11702
X10580Y12908
X10580Y13708
T02
X7830Y13414
X7830Y14414
X7830Y15414
X5723Y13414
X5723Y12414
X7723Y9733
X8723Y9733
X5723Y7233
X5723Y6233
X5723Y5233
X5723Y4233
X13973Y4233
X14973Y4233
X15973Y4233
X16973Y4233
X17973Y4233
X18973Y4233
X19973Y4233
X20973Y4233
X21973Y4233
X21973Y7233
X20973Y7233
X19973Y7233
X18973Y7233
X17973Y7233
X16973Y7233
X15973Y7233
X14973Y7233
X13973Y7233
X17042Y11914
X18042Y11914
X19042Y11914
X20042Y11914
X21042Y11914
X22042Y11914
X12936Y15808
X11936Y15808
X10936Y15808
T03
X1405Y1957
X1405Y16131
X24633Y16131
X24633Y1957
M30
