%
M48
M72
T01C0.0236
T02C0.0315
T03C0.0394
T04C0.0472
%
T01
X3165Y13869
X3165Y26862
X39511Y27338
X39326Y5578
T02
X16365Y7865
X15115Y8865
X14365Y9365
X14365Y8365
X12865Y8365
X16365Y10865
X14365Y12865
X15115Y13365
X14365Y13865
X13365Y12865
X16365Y13365
X16365Y16365
X14365Y18365
X15115Y18865
X14365Y19365
X13365Y18365
X16365Y18865
X16365Y21865
X14365Y23865
X15115Y24365
X14365Y24865
X13365Y23865
X16365Y24365
X14365Y26865
X16365Y27365
X14365Y30865
X10865Y30865
X10865Y26865
X9365Y23865
X9365Y18365
X9365Y12865
X8865Y8365
X11215Y4565
X11215Y3565
T03
X14715Y3065
X14715Y1565
X17215Y1565
X17215Y3065
X17215Y4565
X14715Y4565
X19715Y4565
X19715Y3065
X19715Y1565
X22215Y1565
X22215Y3065
X22215Y4565
X24715Y4565
X24715Y3065
X24715Y1565
X27215Y1565
X27215Y3065
X27215Y4565
X31865Y16365
X33365Y16365
X34865Y16365
X34865Y18865
X33365Y18865
X31865Y18865
X31865Y21365
X33365Y21365
X34865Y21365
X34865Y23865
X33365Y23865
X31865Y23865
X31865Y26365
X33365Y26365
X34865Y26365
X34865Y28865
X33365Y28865
X31865Y28865
X6365Y11365
X6365Y10365
X6365Y9365
X6365Y8365
X6365Y7365
X6365Y6365
X6365Y5365
X6365Y4365
T04
X2084Y2084
X18377Y7909
X18377Y10862
X18377Y13409
X18377Y16362
X18377Y18909
X18377Y21862
X18377Y24409
X18377Y27362
X24283Y27362
X26251Y27362
X28220Y27362
X28220Y24409
X26251Y24409
X24283Y24409
X24283Y21862
X26251Y21862
X28220Y21862
X28220Y18909
X26251Y18909
X24283Y18909
X24283Y16362
X26251Y16362
X28220Y16362
X28220Y13409
X26251Y13409
X24283Y13409
X24283Y10862
X26251Y10862
X28220Y10862
X28220Y7909
X26251Y7909
X24283Y7909
X37909Y9869
X37909Y14200
X37909Y18531
X37909Y22862
X40667Y30430
X4621Y22530
X4621Y18200
X2084Y30430
X40667Y2084
M30
