%
M48
M72
T01C0.0315
T02C0.0394
T03C0.0472
%
T01
X7206Y1994
X7206Y2994
X7206Y3994
X7206Y4994
X10206Y4994
X10206Y3994
X10206Y2994
X10206Y1994
X13206Y1994
X13206Y2994
X13206Y3994
X13206Y4994
X16206Y4994
X16206Y3994
X16206Y2994
X16206Y1994
X19206Y1994
X19206Y2994
X19206Y3994
X19206Y4994
X22206Y4994
X22206Y3994
X22206Y2994
X22206Y1994
T02
X19206Y7994
X18206Y7994
X17206Y7994
X16206Y7994
X15206Y7994
X14206Y7994
X13206Y7994
X12206Y7994
X11206Y7994
X10206Y7994
T03
X1994Y2143
X2112Y11592
X25734Y11592
X25734Y2143
M30
