%
M48
M72
T01C0.0315
T02C0.0394
T03C0.0472
%
T01
X2600Y4600
X2600Y5600
X2600Y6600
X2600Y7600
X5600Y7600
X5600Y6600
X5600Y5600
X5600Y4600
X8600Y4600
X8600Y5600
X8600Y6600
X8600Y7600
X11600Y7600
X11600Y6600
X11600Y5600
X11600Y4600
X14600Y4600
X14600Y5600
X14600Y6600
X14600Y7600
X17600Y7600
X17600Y6600
X17600Y5600
X17600Y4600
T02
X13600Y9600
X12600Y9600
X11600Y9600
X10600Y9600
X9600Y9600
X8600Y9600
X7600Y9600
X6600Y9600
T03
X2069Y2069
X2069Y11517
X17817Y11517
X17817Y2069
M30
