%
M48
M72
T01C0.0315
T02C0.0394
T03C0.0472
%
T01
X4473Y5600
X5973Y5600
X7473Y5600
X8973Y5600
X10473Y5600
X11973Y5600
X11973Y9600
X10473Y9600
X8973Y9600
X7473Y9600
X5973Y9600
X4473Y9600
X11473Y18600
X11473Y20600
X9473Y20600
X9473Y19600
X9473Y23100
X9473Y24100
X13473Y22100
X15473Y22100
X16473Y23100
X16473Y24100
X15473Y20600
X15473Y18600
X18973Y8600
X18973Y4600
T02
X20473Y6600
X20473Y7600
X20473Y8600
X20473Y10100
X20473Y11100
X20473Y12100
X20473Y15100
X22473Y15100
X24473Y15100
X24473Y18100
X24473Y19600
X22473Y19600
X22473Y18100
X20473Y18100
X20473Y19600
X18473Y19600
X18473Y18100
X16473Y17100
X16473Y16100
X16473Y15100
X16473Y14100
X16473Y13100
X16473Y12100
X16473Y11100
X16473Y10100
X16473Y9100
X16473Y8100
X16473Y7100
X16473Y6100
X16473Y5100
X16473Y4100
X13473Y4100
X13473Y5100
X13473Y6100
X13473Y7100
X13473Y8100
X13473Y9100
X13473Y10100
X13473Y11100
X13473Y12100
X13473Y13100
X13473Y14100
X13473Y15100
X13473Y16100
X13473Y17100
X10473Y17100
X10473Y16100
X10473Y15100
X10473Y14100
X10473Y13100
X10473Y12100
X10473Y11100
X10473Y18100
X6473Y21100
X6473Y22100
X11973Y24100
X12973Y24100
X13973Y24100
X18473Y22600
X20473Y22600
X22473Y22600
X24473Y22600
X18473Y15100
T03
X4835Y2462
X25307Y2462
X6473Y24100
X5473Y24100
X4473Y24100
X4835Y27265
X25307Y27265
M30
