G75*
G70*
%OFA0B0*%
%FSLAX24Y24*%
%IPPOS*%
%LPD*%
%AMOC8*
5,1,8,0,0,1.08239X$1,22.5*
%
%ADD10C,0.0000*%
%ADD11C,0.0100*%
%ADD12C,0.0060*%
%ADD13C,0.0070*%
%ADD14C,0.0050*%
%ADD15C,0.0080*%
%ADD16C,0.0010*%
%ADD17R,0.0340X0.0240*%
%ADD18R,0.0240X0.0340*%
%ADD19C,0.0040*%
%ADD20C,0.0020*%
%ADD21R,0.1500X0.0500*%
D10*
X002500Y000457D02*
X002500Y025954D01*
X028870Y025954D01*
X028870Y000457D01*
X002500Y000457D01*
X004764Y002957D02*
X004766Y002987D01*
X004772Y003017D01*
X004781Y003046D01*
X004794Y003073D01*
X004811Y003098D01*
X004830Y003121D01*
X004853Y003142D01*
X004878Y003159D01*
X004904Y003173D01*
X004933Y003183D01*
X004962Y003190D01*
X004992Y003193D01*
X005023Y003192D01*
X005053Y003187D01*
X005082Y003178D01*
X005109Y003166D01*
X005135Y003151D01*
X005159Y003132D01*
X005180Y003110D01*
X005198Y003086D01*
X005213Y003059D01*
X005224Y003031D01*
X005232Y003002D01*
X005236Y002972D01*
X005236Y002942D01*
X005232Y002912D01*
X005224Y002883D01*
X005213Y002855D01*
X005198Y002828D01*
X005180Y002804D01*
X005159Y002782D01*
X005135Y002763D01*
X005109Y002748D01*
X005082Y002736D01*
X005053Y002727D01*
X005023Y002722D01*
X004992Y002721D01*
X004962Y002724D01*
X004933Y002731D01*
X004904Y002741D01*
X004878Y002755D01*
X004853Y002772D01*
X004830Y002793D01*
X004811Y002816D01*
X004794Y002841D01*
X004781Y002868D01*
X004772Y002897D01*
X004766Y002927D01*
X004764Y002957D01*
X026264Y002957D02*
X026266Y002987D01*
X026272Y003017D01*
X026281Y003046D01*
X026294Y003073D01*
X026311Y003098D01*
X026330Y003121D01*
X026353Y003142D01*
X026378Y003159D01*
X026404Y003173D01*
X026433Y003183D01*
X026462Y003190D01*
X026492Y003193D01*
X026523Y003192D01*
X026553Y003187D01*
X026582Y003178D01*
X026609Y003166D01*
X026635Y003151D01*
X026659Y003132D01*
X026680Y003110D01*
X026698Y003086D01*
X026713Y003059D01*
X026724Y003031D01*
X026732Y003002D01*
X026736Y002972D01*
X026736Y002942D01*
X026732Y002912D01*
X026724Y002883D01*
X026713Y002855D01*
X026698Y002828D01*
X026680Y002804D01*
X026659Y002782D01*
X026635Y002763D01*
X026609Y002748D01*
X026582Y002736D01*
X026553Y002727D01*
X026523Y002722D01*
X026492Y002721D01*
X026462Y002724D01*
X026433Y002731D01*
X026404Y002741D01*
X026378Y002755D01*
X026353Y002772D01*
X026330Y002793D01*
X026311Y002816D01*
X026294Y002841D01*
X026281Y002868D01*
X026272Y002897D01*
X026266Y002927D01*
X026264Y002957D01*
X026264Y023457D02*
X026266Y023487D01*
X026272Y023517D01*
X026281Y023546D01*
X026294Y023573D01*
X026311Y023598D01*
X026330Y023621D01*
X026353Y023642D01*
X026378Y023659D01*
X026404Y023673D01*
X026433Y023683D01*
X026462Y023690D01*
X026492Y023693D01*
X026523Y023692D01*
X026553Y023687D01*
X026582Y023678D01*
X026609Y023666D01*
X026635Y023651D01*
X026659Y023632D01*
X026680Y023610D01*
X026698Y023586D01*
X026713Y023559D01*
X026724Y023531D01*
X026732Y023502D01*
X026736Y023472D01*
X026736Y023442D01*
X026732Y023412D01*
X026724Y023383D01*
X026713Y023355D01*
X026698Y023328D01*
X026680Y023304D01*
X026659Y023282D01*
X026635Y023263D01*
X026609Y023248D01*
X026582Y023236D01*
X026553Y023227D01*
X026523Y023222D01*
X026492Y023221D01*
X026462Y023224D01*
X026433Y023231D01*
X026404Y023241D01*
X026378Y023255D01*
X026353Y023272D01*
X026330Y023293D01*
X026311Y023316D01*
X026294Y023341D01*
X026281Y023368D01*
X026272Y023397D01*
X026266Y023427D01*
X026264Y023457D01*
X004764Y023457D02*
X004766Y023487D01*
X004772Y023517D01*
X004781Y023546D01*
X004794Y023573D01*
X004811Y023598D01*
X004830Y023621D01*
X004853Y023642D01*
X004878Y023659D01*
X004904Y023673D01*
X004933Y023683D01*
X004962Y023690D01*
X004992Y023693D01*
X005023Y023692D01*
X005053Y023687D01*
X005082Y023678D01*
X005109Y023666D01*
X005135Y023651D01*
X005159Y023632D01*
X005180Y023610D01*
X005198Y023586D01*
X005213Y023559D01*
X005224Y023531D01*
X005232Y023502D01*
X005236Y023472D01*
X005236Y023442D01*
X005232Y023412D01*
X005224Y023383D01*
X005213Y023355D01*
X005198Y023328D01*
X005180Y023304D01*
X005159Y023282D01*
X005135Y023263D01*
X005109Y023248D01*
X005082Y023236D01*
X005053Y023227D01*
X005023Y023222D01*
X004992Y023221D01*
X004962Y023224D01*
X004933Y023231D01*
X004904Y023241D01*
X004878Y023255D01*
X004853Y023272D01*
X004830Y023293D01*
X004811Y023316D01*
X004794Y023341D01*
X004781Y023368D01*
X004772Y023397D01*
X004766Y023427D01*
X004764Y023457D01*
D11*
X007250Y020207D02*
X007250Y018707D01*
X010750Y018707D01*
X010750Y020207D01*
X007250Y020207D01*
X004750Y019957D02*
X004750Y019707D01*
X004500Y019707D01*
X004500Y019207D01*
X004750Y019207D01*
X004750Y018707D01*
X004500Y018707D01*
X004500Y018207D01*
X004750Y018207D01*
X004750Y017957D01*
X003500Y017957D01*
X003500Y018457D01*
X000350Y018457D01*
X000150Y018557D01*
X000150Y018977D01*
X000150Y018937D01*
X000150Y018977D02*
X000150Y019357D01*
X000350Y019457D01*
X003500Y019457D01*
X003500Y019607D02*
X001050Y019607D01*
X000910Y019477D01*
X000910Y018437D02*
X001050Y018307D01*
X003500Y018307D01*
X003500Y018457D02*
X003500Y019607D01*
X003500Y019957D01*
X004750Y019957D01*
X004750Y015457D02*
X003500Y015457D01*
X003500Y015107D01*
X001050Y015107D01*
X000910Y014977D01*
X000350Y014957D02*
X000150Y014857D01*
X000150Y014477D01*
X000150Y014437D01*
X000150Y014477D02*
X000150Y014057D01*
X000350Y013957D01*
X003500Y013957D01*
X003500Y013457D01*
X004750Y013457D01*
X004750Y013707D01*
X004500Y013707D01*
X004500Y014207D01*
X004750Y014207D01*
X004750Y014707D01*
X004500Y014707D01*
X004500Y015207D01*
X004750Y015207D01*
X004750Y015457D01*
X003500Y015107D02*
X003500Y013957D01*
X003500Y013807D02*
X001050Y013807D01*
X000910Y013937D01*
X000350Y014957D02*
X003500Y014957D01*
X003500Y012457D02*
X003500Y012107D01*
X001050Y012107D01*
X000910Y011977D01*
X000350Y011957D02*
X000150Y011857D01*
X000150Y011477D01*
X000150Y011437D01*
X000150Y011477D02*
X000150Y011057D01*
X000350Y010957D01*
X003500Y010957D01*
X003500Y010457D01*
X004750Y010457D01*
X004750Y010707D01*
X004500Y010707D01*
X004500Y011207D01*
X004750Y011207D01*
X004750Y011707D01*
X004500Y011707D01*
X004500Y012207D01*
X004750Y012207D01*
X004750Y012457D01*
X003500Y012457D01*
X003500Y012107D02*
X003500Y010957D01*
X003500Y010807D02*
X001050Y010807D01*
X000910Y010937D01*
X000350Y011957D02*
X003500Y011957D01*
X003500Y009457D02*
X003500Y009107D01*
X001050Y009107D01*
X000910Y008977D01*
X000350Y008957D02*
X000150Y008857D01*
X000150Y008477D01*
X000150Y008437D01*
X000150Y008477D02*
X000150Y008057D01*
X000350Y007957D01*
X003500Y007957D01*
X003500Y007457D01*
X004750Y007457D01*
X004750Y007707D01*
X004500Y007707D01*
X004500Y008207D01*
X004750Y008207D01*
X004750Y008707D01*
X004500Y008707D01*
X004500Y009207D01*
X004750Y009207D01*
X004750Y009457D01*
X003500Y009457D01*
X003500Y009107D02*
X003500Y007957D01*
X003500Y007807D02*
X001050Y007807D01*
X000910Y007937D01*
X000350Y008957D02*
X003500Y008957D01*
X010000Y005207D02*
X010000Y003957D01*
X010350Y003957D01*
X010350Y001507D01*
X010480Y001367D01*
X010500Y000807D02*
X010600Y000607D01*
X010980Y000607D01*
X011020Y000607D01*
X010980Y000607D02*
X011400Y000607D01*
X011500Y000807D01*
X011500Y003957D01*
X012000Y003957D01*
X012000Y005207D01*
X011750Y005207D01*
X011750Y004957D01*
X011250Y004957D01*
X011250Y005207D01*
X010750Y005207D01*
X010750Y004957D01*
X010250Y004957D01*
X010250Y005207D01*
X010000Y005207D01*
X010350Y003957D02*
X011500Y003957D01*
X011650Y003957D02*
X011650Y001507D01*
X011520Y001367D01*
X010500Y000807D02*
X010500Y003957D01*
X013000Y003957D02*
X013350Y003957D01*
X013350Y001507D01*
X013480Y001367D01*
X013500Y000807D02*
X013600Y000607D01*
X015020Y000607D01*
X014980Y000607D02*
X016400Y000607D01*
X016500Y000807D01*
X016500Y003957D01*
X017000Y003957D01*
X017000Y005207D01*
X016750Y005207D01*
X016750Y004957D01*
X016250Y004957D01*
X016250Y005207D01*
X015750Y005207D01*
X015750Y004957D01*
X015250Y004957D01*
X015250Y005207D01*
X014750Y005207D01*
X014750Y004957D01*
X014250Y004957D01*
X014250Y005207D01*
X013750Y005207D01*
X013750Y004957D01*
X013250Y004957D01*
X013250Y005207D01*
X013000Y005207D01*
X013000Y003957D01*
X013350Y003957D02*
X016500Y003957D01*
X016650Y003957D02*
X016650Y001507D01*
X016520Y001367D01*
X018350Y001507D02*
X018480Y001367D01*
X018350Y001507D02*
X018350Y003957D01*
X021500Y003957D01*
X021500Y000807D01*
X021400Y000607D01*
X019980Y000607D01*
X020020Y000607D02*
X018600Y000607D01*
X018500Y000807D01*
X018500Y003957D01*
X018350Y003957D02*
X018000Y003957D01*
X018000Y005207D01*
X018250Y005207D01*
X018250Y004957D01*
X018750Y004957D01*
X018750Y005207D01*
X019250Y005207D01*
X019250Y004957D01*
X019750Y004957D01*
X019750Y005207D01*
X020250Y005207D01*
X020250Y004957D01*
X020750Y004957D01*
X020750Y005207D01*
X021250Y005207D01*
X021250Y004957D01*
X021750Y004957D01*
X021750Y005207D01*
X022000Y005207D01*
X022000Y003957D01*
X021500Y003957D01*
X021650Y003957D02*
X021650Y001507D01*
X021520Y001367D01*
X024250Y006457D02*
X025500Y006457D01*
X025500Y006807D01*
X027950Y006807D01*
X028090Y006937D01*
X028650Y006957D02*
X028850Y007057D01*
X028850Y007477D01*
X028850Y007437D02*
X028850Y008857D01*
X028650Y008957D01*
X025500Y008957D01*
X025500Y009457D01*
X024250Y009457D01*
X024250Y009207D01*
X024500Y009207D01*
X024500Y008707D01*
X024250Y008707D01*
X024250Y008207D01*
X024500Y008207D01*
X024500Y007707D01*
X024250Y007707D01*
X024250Y007207D01*
X024500Y007207D01*
X024500Y006707D01*
X024250Y006707D01*
X024250Y006457D01*
X025500Y006957D02*
X028650Y006957D01*
X028090Y008977D02*
X027950Y009107D01*
X025500Y009107D01*
X025500Y010457D02*
X024250Y010457D01*
X024250Y010707D01*
X024500Y010707D01*
X024500Y011207D01*
X024250Y011207D01*
X024250Y011707D01*
X024500Y011707D01*
X024500Y012207D01*
X024250Y012207D01*
X024250Y012707D01*
X024500Y012707D01*
X024500Y013207D01*
X024250Y013207D01*
X024250Y013457D01*
X025500Y013457D01*
X025500Y012957D01*
X028650Y012957D01*
X028850Y012857D01*
X028850Y011437D01*
X028850Y011477D02*
X028850Y011057D01*
X028650Y010957D01*
X025500Y010957D01*
X025500Y010807D02*
X027950Y010807D01*
X028090Y010937D01*
X028090Y012977D02*
X027950Y013107D01*
X025500Y013107D01*
X025500Y010807D02*
X025500Y010457D01*
X021250Y015457D02*
X020750Y015457D01*
X020500Y015707D01*
X020500Y016207D01*
X020750Y016457D01*
X021250Y016457D01*
X021500Y016207D01*
X021500Y015707D01*
X021250Y015457D01*
X012600Y017657D02*
X012600Y017957D01*
X012600Y018257D01*
X012400Y018257D02*
X012400Y017957D01*
X012400Y017657D01*
X013500Y003957D02*
X013500Y000807D01*
D12*
X011871Y006748D02*
X011928Y006805D01*
X011928Y006862D01*
X011871Y006918D01*
X011701Y006918D01*
X011701Y006805D01*
X011758Y006748D01*
X011871Y006748D01*
X011701Y006918D02*
X011815Y007032D01*
X011928Y007088D01*
X011560Y007088D02*
X011446Y007088D01*
X011503Y007088D02*
X011503Y006805D01*
X011446Y006748D01*
X011389Y006748D01*
X011333Y006805D01*
X010850Y010707D02*
X010150Y010707D01*
X010133Y010709D01*
X010116Y010713D01*
X010100Y010720D01*
X010086Y010730D01*
X010073Y010743D01*
X010063Y010757D01*
X010056Y010773D01*
X010052Y010790D01*
X010050Y010807D01*
X010050Y010957D01*
X010100Y011007D01*
X010100Y012907D01*
X010050Y012957D01*
X010050Y013107D01*
X010052Y013124D01*
X010056Y013141D01*
X010063Y013157D01*
X010073Y013171D01*
X010086Y013184D01*
X010100Y013194D01*
X010116Y013201D01*
X010133Y013205D01*
X010150Y013207D01*
X010850Y013207D01*
X010867Y013205D01*
X010884Y013201D01*
X010900Y013194D01*
X010914Y013184D01*
X010927Y013171D01*
X010937Y013157D01*
X010944Y013141D01*
X010948Y013124D01*
X010950Y013107D01*
X010950Y012957D01*
X010900Y012907D01*
X010900Y011007D01*
X010950Y010957D01*
X010950Y010807D01*
X010948Y010790D01*
X010944Y010773D01*
X010937Y010757D01*
X010927Y010743D01*
X010914Y010730D01*
X010900Y010720D01*
X010884Y010713D01*
X010867Y010709D01*
X010850Y010707D01*
X012050Y010807D02*
X012050Y010957D01*
X012100Y011007D01*
X012100Y012907D01*
X012050Y012957D01*
X012050Y013107D01*
X012052Y013124D01*
X012056Y013141D01*
X012063Y013157D01*
X012073Y013171D01*
X012086Y013184D01*
X012100Y013194D01*
X012116Y013201D01*
X012133Y013205D01*
X012150Y013207D01*
X012850Y013207D01*
X012867Y013205D01*
X012884Y013201D01*
X012900Y013194D01*
X012914Y013184D01*
X012927Y013171D01*
X012937Y013157D01*
X012944Y013141D01*
X012948Y013124D01*
X012950Y013107D01*
X012950Y012957D01*
X012900Y012907D01*
X012900Y011007D01*
X012950Y010957D01*
X012950Y010807D01*
X012948Y010790D01*
X012944Y010773D01*
X012937Y010757D01*
X012927Y010743D01*
X012914Y010730D01*
X012900Y010720D01*
X012884Y010713D01*
X012867Y010709D01*
X012850Y010707D01*
X012150Y010707D01*
X012133Y010709D01*
X012116Y010713D01*
X012100Y010720D01*
X012086Y010730D01*
X012073Y010743D01*
X012063Y010757D01*
X012056Y010773D01*
X012052Y010790D01*
X012050Y010807D01*
X008950Y011807D02*
X008950Y011957D01*
X008900Y012007D01*
X008900Y013907D01*
X008950Y013957D01*
X008950Y014107D01*
X008948Y014124D01*
X008944Y014141D01*
X008937Y014157D01*
X008927Y014171D01*
X008914Y014184D01*
X008900Y014194D01*
X008884Y014201D01*
X008867Y014205D01*
X008850Y014207D01*
X008150Y014207D01*
X008133Y014205D01*
X008116Y014201D01*
X008100Y014194D01*
X008086Y014184D01*
X008073Y014171D01*
X008063Y014157D01*
X008056Y014141D01*
X008052Y014124D01*
X008050Y014107D01*
X008050Y013957D01*
X008100Y013907D01*
X008100Y012007D01*
X008050Y011957D01*
X008050Y011807D01*
X007950Y011807D02*
X007950Y011957D01*
X007900Y012007D01*
X007900Y013907D01*
X007950Y013957D01*
X007950Y014107D01*
X007948Y014124D01*
X007944Y014141D01*
X007937Y014157D01*
X007927Y014171D01*
X007914Y014184D01*
X007900Y014194D01*
X007884Y014201D01*
X007867Y014205D01*
X007850Y014207D01*
X007150Y014207D01*
X007133Y014205D01*
X007116Y014201D01*
X007100Y014194D01*
X007086Y014184D01*
X007073Y014171D01*
X007063Y014157D01*
X007056Y014141D01*
X007052Y014124D01*
X007050Y014107D01*
X007050Y013957D01*
X007100Y013907D01*
X007100Y012007D01*
X007050Y011957D01*
X007050Y011807D01*
X007052Y011790D01*
X007056Y011773D01*
X007063Y011757D01*
X007073Y011743D01*
X007086Y011730D01*
X007100Y011720D01*
X007116Y011713D01*
X007133Y011709D01*
X007150Y011707D01*
X007850Y011707D01*
X007867Y011709D01*
X007884Y011713D01*
X007900Y011720D01*
X007914Y011730D01*
X007927Y011743D01*
X007937Y011757D01*
X007944Y011773D01*
X007948Y011790D01*
X007950Y011807D01*
X008050Y011807D02*
X008052Y011790D01*
X008056Y011773D01*
X008063Y011757D01*
X008073Y011743D01*
X008086Y011730D01*
X008100Y011720D01*
X008116Y011713D01*
X008133Y011709D01*
X008150Y011707D01*
X008850Y011707D01*
X008867Y011709D01*
X008884Y011713D01*
X008900Y011720D01*
X008914Y011730D01*
X008927Y011743D01*
X008937Y011757D01*
X008944Y011773D01*
X008948Y011790D01*
X008950Y011807D01*
X006631Y010987D02*
X006631Y010873D01*
X006574Y010816D01*
X006517Y010816D01*
X006460Y010873D01*
X006460Y010987D01*
X006517Y011043D01*
X006574Y011043D01*
X006631Y010987D01*
X006460Y010987D02*
X006404Y011043D01*
X006347Y011043D01*
X006290Y010987D01*
X006290Y010873D01*
X006347Y010816D01*
X006404Y010816D01*
X006460Y010873D01*
X006290Y010675D02*
X006290Y010562D01*
X006290Y010618D02*
X006574Y010618D01*
X006631Y010562D01*
X006631Y010505D01*
X006574Y010448D01*
X006347Y008043D02*
X006574Y007816D01*
X006631Y007816D01*
X006574Y007618D02*
X006290Y007618D01*
X006290Y007562D02*
X006290Y007675D01*
X006290Y007816D02*
X006290Y008043D01*
X006347Y008043D01*
X006574Y007618D02*
X006631Y007562D01*
X006631Y007505D01*
X006574Y007448D01*
X006574Y013448D02*
X006631Y013505D01*
X006631Y013562D01*
X006574Y013618D01*
X006290Y013618D01*
X006290Y013562D02*
X006290Y013675D01*
X006347Y013816D02*
X006404Y013816D01*
X006460Y013873D01*
X006460Y014043D01*
X006347Y014043D02*
X006574Y014043D01*
X006631Y013987D01*
X006631Y013873D01*
X006574Y013816D01*
X006347Y013816D02*
X006290Y013873D01*
X006290Y013987D01*
X006347Y014043D01*
X007850Y016007D02*
X008000Y016007D01*
X008050Y016057D01*
X009950Y016057D01*
X010000Y016007D01*
X010150Y016007D01*
X010167Y016009D01*
X010184Y016013D01*
X010200Y016020D01*
X010214Y016030D01*
X010227Y016043D01*
X010237Y016057D01*
X010244Y016073D01*
X010248Y016090D01*
X010250Y016107D01*
X010250Y016807D01*
X010248Y016824D01*
X010244Y016841D01*
X010237Y016857D01*
X010227Y016871D01*
X010214Y016884D01*
X010200Y016894D01*
X010184Y016901D01*
X010167Y016905D01*
X010150Y016907D01*
X010000Y016907D01*
X009950Y016857D01*
X008050Y016857D01*
X008000Y016907D01*
X007850Y016907D01*
X007833Y016905D01*
X007816Y016901D01*
X007800Y016894D01*
X007786Y016884D01*
X007773Y016871D01*
X007763Y016857D01*
X007756Y016841D01*
X007752Y016824D01*
X007750Y016807D01*
X007750Y016107D01*
X007752Y016090D01*
X007756Y016073D01*
X007763Y016057D01*
X007773Y016043D01*
X007786Y016030D01*
X007800Y016020D01*
X007816Y016013D01*
X007833Y016009D01*
X007850Y016007D01*
X006574Y017948D02*
X006631Y018005D01*
X006631Y018062D01*
X006574Y018118D01*
X006290Y018118D01*
X006290Y018062D02*
X006290Y018175D01*
X006404Y018316D02*
X006290Y018430D01*
X006631Y018430D01*
X006631Y018543D02*
X006631Y018316D01*
X011550Y018357D02*
X011550Y017557D01*
X011552Y017540D01*
X011556Y017523D01*
X011563Y017507D01*
X011573Y017493D01*
X011586Y017480D01*
X011600Y017470D01*
X011616Y017463D01*
X011633Y017459D01*
X011650Y017457D01*
X013350Y017457D01*
X013367Y017459D01*
X013384Y017463D01*
X013400Y017470D01*
X013414Y017480D01*
X013427Y017493D01*
X013437Y017507D01*
X013444Y017523D01*
X013448Y017540D01*
X013450Y017557D01*
X013450Y018357D01*
X013448Y018374D01*
X013444Y018391D01*
X013437Y018407D01*
X013427Y018421D01*
X013414Y018434D01*
X013400Y018444D01*
X013384Y018451D01*
X013367Y018455D01*
X013350Y018457D01*
X011650Y018457D01*
X011633Y018455D01*
X011616Y018451D01*
X011600Y018444D01*
X011586Y018434D01*
X011573Y018421D01*
X011563Y018407D01*
X011556Y018391D01*
X011552Y018374D01*
X011550Y018357D01*
X012350Y017957D02*
X012400Y017957D01*
X012600Y017957D02*
X012650Y017957D01*
X013050Y019207D02*
X013050Y019507D01*
X013200Y019357D02*
X012900Y019357D01*
X011300Y019957D02*
X011302Y020026D01*
X011308Y020095D01*
X011318Y020163D01*
X011332Y020231D01*
X011349Y020298D01*
X011371Y020364D01*
X011396Y020428D01*
X011425Y020491D01*
X011458Y020552D01*
X011494Y020611D01*
X011533Y020668D01*
X011576Y020722D01*
X011621Y020774D01*
X011670Y020824D01*
X011721Y020870D01*
X011775Y020913D01*
X011832Y020954D01*
X011890Y020990D01*
X011951Y021024D01*
X012013Y021054D01*
X012077Y021080D01*
X012142Y021102D01*
X012209Y021121D01*
X012277Y021136D01*
X012345Y021147D01*
X012414Y021154D01*
X012483Y021157D01*
X012552Y021156D01*
X012621Y021151D01*
X012689Y021142D01*
X012757Y021129D01*
X012824Y021112D01*
X012891Y021092D01*
X012955Y021067D01*
X013018Y021039D01*
X013080Y021008D01*
X013139Y020972D01*
X013197Y020934D01*
X013252Y020892D01*
X013305Y020847D01*
X013355Y020799D01*
X013402Y020749D01*
X013446Y020695D01*
X013487Y020640D01*
X013525Y020582D01*
X013559Y020522D01*
X013590Y020460D01*
X013617Y020396D01*
X013640Y020331D01*
X013660Y020265D01*
X013676Y020197D01*
X013688Y020129D01*
X013696Y020061D01*
X013700Y019992D01*
X013700Y019922D01*
X013696Y019853D01*
X013688Y019785D01*
X013676Y019717D01*
X013660Y019649D01*
X013640Y019583D01*
X013617Y019518D01*
X013590Y019454D01*
X013559Y019392D01*
X013525Y019332D01*
X013487Y019274D01*
X013446Y019219D01*
X013402Y019165D01*
X013355Y019115D01*
X013305Y019067D01*
X013252Y019022D01*
X013197Y018980D01*
X013139Y018942D01*
X013080Y018906D01*
X013018Y018875D01*
X012955Y018847D01*
X012891Y018822D01*
X012824Y018802D01*
X012757Y018785D01*
X012689Y018772D01*
X012621Y018763D01*
X012552Y018758D01*
X012483Y018757D01*
X012414Y018760D01*
X012345Y018767D01*
X012277Y018778D01*
X012209Y018793D01*
X012142Y018812D01*
X012077Y018834D01*
X012013Y018860D01*
X011951Y018890D01*
X011890Y018924D01*
X011832Y018960D01*
X011775Y019001D01*
X011721Y019044D01*
X011670Y019090D01*
X011621Y019140D01*
X011576Y019192D01*
X011533Y019246D01*
X011494Y019303D01*
X011458Y019362D01*
X011425Y019423D01*
X011396Y019486D01*
X011371Y019550D01*
X011349Y019616D01*
X011332Y019683D01*
X011318Y019751D01*
X011308Y019819D01*
X011302Y019888D01*
X011300Y019957D01*
X017500Y023407D02*
X017500Y009457D01*
X019500Y009457D01*
X019500Y023457D01*
X019000Y023457D01*
X018998Y023413D01*
X018992Y023370D01*
X018983Y023328D01*
X018970Y023286D01*
X018953Y023246D01*
X018933Y023207D01*
X018910Y023170D01*
X018883Y023136D01*
X018854Y023103D01*
X018821Y023074D01*
X018787Y023047D01*
X018750Y023024D01*
X018711Y023004D01*
X018671Y022987D01*
X018629Y022974D01*
X018587Y022965D01*
X018544Y022959D01*
X018500Y022957D01*
X018456Y022959D01*
X018413Y022965D01*
X018371Y022974D01*
X018329Y022987D01*
X018289Y023004D01*
X018250Y023024D01*
X018213Y023047D01*
X018179Y023074D01*
X018146Y023103D01*
X018117Y023136D01*
X018090Y023170D01*
X018067Y023207D01*
X018047Y023246D01*
X018030Y023286D01*
X018017Y023328D01*
X018008Y023370D01*
X018002Y023413D01*
X018000Y023457D01*
X017500Y023457D01*
X024750Y018807D02*
X024750Y018107D01*
X024752Y018090D01*
X024756Y018073D01*
X024763Y018057D01*
X024773Y018043D01*
X024786Y018030D01*
X024800Y018020D01*
X024816Y018013D01*
X024833Y018009D01*
X024850Y018007D01*
X025000Y018007D01*
X025050Y018057D01*
X026950Y018057D01*
X027000Y018007D01*
X027150Y018007D01*
X027167Y018009D01*
X027184Y018013D01*
X027200Y018020D01*
X027214Y018030D01*
X027227Y018043D01*
X027237Y018057D01*
X027244Y018073D01*
X027248Y018090D01*
X027250Y018107D01*
X027250Y018807D01*
X027248Y018824D01*
X027244Y018841D01*
X027237Y018857D01*
X027227Y018871D01*
X027214Y018884D01*
X027200Y018894D01*
X027184Y018901D01*
X027167Y018905D01*
X027150Y018907D01*
X027000Y018907D01*
X026950Y018857D01*
X025050Y018857D01*
X025000Y018907D01*
X024850Y018907D01*
X024833Y018905D01*
X024816Y018901D01*
X024800Y018894D01*
X024786Y018884D01*
X024773Y018871D01*
X024763Y018857D01*
X024756Y018841D01*
X024752Y018824D01*
X024750Y018807D01*
X024500Y015957D02*
X024502Y016020D01*
X024508Y016082D01*
X024518Y016144D01*
X024531Y016206D01*
X024549Y016266D01*
X024570Y016325D01*
X024595Y016383D01*
X024624Y016439D01*
X024656Y016493D01*
X024691Y016545D01*
X024729Y016594D01*
X024771Y016642D01*
X024815Y016686D01*
X024863Y016728D01*
X024912Y016766D01*
X024964Y016801D01*
X025018Y016833D01*
X025074Y016862D01*
X025132Y016887D01*
X025191Y016908D01*
X025251Y016926D01*
X025313Y016939D01*
X025375Y016949D01*
X025437Y016955D01*
X025500Y016957D01*
X025563Y016955D01*
X025625Y016949D01*
X025687Y016939D01*
X025749Y016926D01*
X025809Y016908D01*
X025868Y016887D01*
X025926Y016862D01*
X025982Y016833D01*
X026036Y016801D01*
X026088Y016766D01*
X026137Y016728D01*
X026185Y016686D01*
X026229Y016642D01*
X026271Y016594D01*
X026309Y016545D01*
X026344Y016493D01*
X026376Y016439D01*
X026405Y016383D01*
X026430Y016325D01*
X026451Y016266D01*
X026469Y016206D01*
X026482Y016144D01*
X026492Y016082D01*
X026498Y016020D01*
X026500Y015957D01*
X026498Y015894D01*
X026492Y015832D01*
X026482Y015770D01*
X026469Y015708D01*
X026451Y015648D01*
X026430Y015589D01*
X026405Y015531D01*
X026376Y015475D01*
X026344Y015421D01*
X026309Y015369D01*
X026271Y015320D01*
X026229Y015272D01*
X026185Y015228D01*
X026137Y015186D01*
X026088Y015148D01*
X026036Y015113D01*
X025982Y015081D01*
X025926Y015052D01*
X025868Y015027D01*
X025809Y015006D01*
X025749Y014988D01*
X025687Y014975D01*
X025625Y014965D01*
X025563Y014959D01*
X025500Y014957D01*
X025437Y014959D01*
X025375Y014965D01*
X025313Y014975D01*
X025251Y014988D01*
X025191Y015006D01*
X025132Y015027D01*
X025074Y015052D01*
X025018Y015081D01*
X024964Y015113D01*
X024912Y015148D01*
X024863Y015186D01*
X024815Y015228D01*
X024771Y015272D01*
X024729Y015320D01*
X024691Y015369D01*
X024656Y015421D01*
X024624Y015475D01*
X024595Y015531D01*
X024570Y015589D01*
X024549Y015648D01*
X024531Y015708D01*
X024518Y015770D01*
X024508Y015832D01*
X024502Y015894D01*
X024500Y015957D01*
X022653Y013385D02*
X022709Y013329D01*
X022709Y013215D01*
X022653Y013159D01*
X022539Y013272D02*
X022539Y013329D01*
X022596Y013385D01*
X022653Y013385D01*
X022539Y013329D02*
X022483Y013385D01*
X022426Y013385D01*
X022369Y013329D01*
X022369Y013215D01*
X022426Y013159D01*
X022369Y013017D02*
X022369Y012904D01*
X022369Y012960D02*
X022653Y012960D01*
X022709Y012904D01*
X022709Y012847D01*
X022653Y012790D01*
X022539Y009385D02*
X022539Y009159D01*
X022369Y009329D01*
X022709Y009329D01*
X022653Y008960D02*
X022369Y008960D01*
X022369Y008904D02*
X022369Y009017D01*
X022653Y008960D02*
X022709Y008904D01*
X022709Y008847D01*
X022653Y008790D01*
X021871Y007088D02*
X021758Y007088D01*
X021701Y007032D01*
X021701Y006805D01*
X021928Y007032D01*
X021928Y006805D01*
X021871Y006748D01*
X021758Y006748D01*
X021701Y006805D01*
X021560Y006748D02*
X021333Y006748D01*
X021446Y006748D02*
X021446Y007088D01*
X021333Y006975D01*
X021191Y007088D02*
X021078Y007088D01*
X021135Y007088D02*
X021135Y006805D01*
X021078Y006748D01*
X021021Y006748D01*
X020964Y006805D01*
X021871Y007088D02*
X021928Y007032D01*
X019750Y008107D02*
X019750Y008807D01*
X019748Y008824D01*
X019744Y008841D01*
X019737Y008857D01*
X019727Y008871D01*
X019714Y008884D01*
X019700Y008894D01*
X019684Y008901D01*
X019667Y008905D01*
X019650Y008907D01*
X019500Y008907D01*
X019450Y008857D01*
X017550Y008857D01*
X017500Y008907D01*
X017350Y008907D01*
X017333Y008905D01*
X017316Y008901D01*
X017300Y008894D01*
X017286Y008884D01*
X017273Y008871D01*
X017263Y008857D01*
X017256Y008841D01*
X017252Y008824D01*
X017250Y008807D01*
X017250Y008107D01*
X017252Y008090D01*
X017256Y008073D01*
X017263Y008057D01*
X017273Y008043D01*
X017286Y008030D01*
X017300Y008020D01*
X017316Y008013D01*
X017333Y008009D01*
X017350Y008007D01*
X017500Y008007D01*
X017550Y008057D01*
X019450Y008057D01*
X019500Y008007D01*
X019650Y008007D01*
X019667Y008009D01*
X019684Y008013D01*
X019700Y008020D01*
X019714Y008030D01*
X019727Y008043D01*
X019737Y008057D01*
X019744Y008073D01*
X019748Y008090D01*
X019750Y008107D01*
X016928Y007088D02*
X016701Y007088D01*
X016701Y006918D01*
X016815Y006975D01*
X016871Y006975D01*
X016928Y006918D01*
X016928Y006805D01*
X016871Y006748D01*
X016758Y006748D01*
X016701Y006805D01*
X016503Y006805D02*
X016446Y006748D01*
X016389Y006748D01*
X016333Y006805D01*
X016503Y006805D02*
X016503Y007088D01*
X016446Y007088D02*
X016560Y007088D01*
D13*
X016774Y004480D02*
X016774Y004193D01*
X016774Y004336D02*
X016344Y004336D01*
X016487Y004193D01*
X018364Y004458D02*
X018579Y004243D01*
X018579Y004530D01*
X018794Y004458D02*
X018364Y004458D01*
X021344Y004336D02*
X021774Y004336D01*
X021774Y004193D02*
X021774Y004480D01*
X021487Y004193D02*
X021344Y004336D01*
X024824Y006894D02*
X024896Y006822D01*
X025040Y006822D01*
X025111Y006894D01*
X025111Y006965D01*
X025040Y007037D01*
X024968Y007037D01*
X025040Y007037D02*
X025111Y007109D01*
X025111Y007181D01*
X025040Y007252D01*
X024896Y007252D01*
X024824Y007181D01*
X024874Y008802D02*
X025161Y008802D01*
X025018Y008802D02*
X025018Y009232D01*
X024874Y009089D01*
X024896Y010822D02*
X024824Y010894D01*
X024896Y010822D02*
X025040Y010822D01*
X025111Y010894D01*
X025111Y010965D01*
X025040Y011037D01*
X024968Y011037D01*
X025040Y011037D02*
X025111Y011109D01*
X025111Y011181D01*
X025040Y011252D01*
X024896Y011252D01*
X024824Y011181D01*
X024874Y012802D02*
X025161Y012802D01*
X025018Y012802D02*
X025018Y013232D01*
X024874Y013089D01*
X013794Y004458D02*
X013364Y004458D01*
X013579Y004243D01*
X013579Y004530D01*
X011774Y004480D02*
X011774Y004193D01*
X011774Y004336D02*
X011344Y004336D01*
X011487Y004193D01*
X010794Y004243D02*
X010507Y004530D01*
X010436Y004530D01*
X010364Y004458D01*
X010364Y004314D01*
X010436Y004243D01*
X010794Y004243D02*
X010794Y004530D01*
X004072Y008663D02*
X003785Y008663D01*
X004072Y008950D01*
X004072Y009022D01*
X004000Y009093D01*
X003857Y009093D01*
X003785Y009022D01*
X003879Y008113D02*
X003879Y007683D01*
X004022Y007683D02*
X003735Y007683D01*
X003735Y007970D02*
X003879Y008113D01*
X003879Y010683D02*
X003879Y011113D01*
X003735Y010970D01*
X003735Y010683D02*
X004022Y010683D01*
X004072Y011663D02*
X003785Y011663D01*
X004072Y011950D01*
X004072Y012022D01*
X004000Y012093D01*
X003857Y012093D01*
X003785Y012022D01*
X003735Y013683D02*
X004022Y013683D01*
X003879Y013683D02*
X003879Y014113D01*
X003735Y013970D01*
X003785Y014663D02*
X004072Y014950D01*
X004072Y015022D01*
X004000Y015093D01*
X003857Y015093D01*
X003785Y015022D01*
X003785Y014663D02*
X004072Y014663D01*
X004022Y018183D02*
X003735Y018183D01*
X003879Y018183D02*
X003879Y018613D01*
X003735Y018470D01*
X003785Y019163D02*
X004072Y019450D01*
X004072Y019522D01*
X004000Y019593D01*
X003857Y019593D01*
X003785Y019522D01*
X003785Y019163D02*
X004072Y019163D01*
X017535Y023542D02*
X017535Y024173D01*
X017850Y024173D01*
X017955Y024068D01*
X017955Y023858D01*
X017850Y023753D01*
X017535Y023753D01*
X018180Y023542D02*
X018390Y023542D01*
X018285Y023542D02*
X018285Y024173D01*
X018180Y024173D02*
X018390Y024173D01*
X018609Y024068D02*
X018609Y023648D01*
X018714Y023542D01*
X018925Y023542D01*
X019030Y023648D01*
X019254Y023542D02*
X019674Y023542D01*
X019464Y023542D02*
X019464Y024173D01*
X019254Y023963D01*
X019030Y024068D02*
X018925Y024173D01*
X018714Y024173D01*
X018609Y024068D01*
X019898Y023858D02*
X019898Y023648D01*
X020003Y023542D01*
X020214Y023542D01*
X020319Y023648D01*
X020319Y023753D01*
X020214Y023858D01*
X019898Y023858D01*
X020109Y024068D01*
X020319Y024173D01*
X020543Y024173D02*
X020963Y024173D01*
X021187Y023963D02*
X021398Y024173D01*
X021398Y023542D01*
X021608Y023542D02*
X021187Y023542D01*
X020753Y023858D02*
X020543Y023858D01*
X020543Y024173D02*
X020543Y023542D01*
D14*
X021875Y022457D02*
X021625Y022207D01*
X021625Y021582D01*
X021750Y021457D01*
X021625Y021332D01*
X021625Y020707D01*
X021875Y020457D01*
X021625Y020207D01*
X021625Y019582D01*
X021750Y019457D01*
X021625Y019332D01*
X021625Y018707D01*
X021875Y018457D01*
X021625Y018207D01*
X021625Y017582D01*
X021750Y017457D01*
X021625Y017332D01*
X021625Y016707D01*
X021875Y016457D01*
X023250Y016457D01*
X023500Y016207D01*
X023500Y015582D01*
X023375Y015457D01*
X023500Y015332D01*
X023500Y014707D01*
X023250Y014457D01*
X021875Y014457D01*
X021625Y014707D01*
X021625Y015332D01*
X021750Y015457D01*
X021625Y015582D01*
X021625Y016207D01*
X021875Y016457D01*
X023125Y016457D01*
X023375Y016707D01*
X023375Y017332D01*
X023250Y017457D01*
X023375Y017582D01*
X023375Y018207D01*
X023125Y018457D01*
X023375Y018707D01*
X023375Y019332D01*
X023250Y019457D01*
X023375Y019582D01*
X023375Y020207D01*
X023125Y020457D01*
X023375Y020707D01*
X023375Y021332D01*
X023250Y021457D01*
X023375Y021582D01*
X023375Y022207D01*
X023125Y022457D01*
X021875Y022457D01*
X024825Y019533D02*
X025050Y019533D01*
X025125Y019458D01*
X025125Y019308D01*
X025050Y019233D01*
X024825Y019233D01*
X024975Y019233D02*
X025125Y019082D01*
X025285Y019082D02*
X025586Y019082D01*
X025436Y019082D02*
X025436Y019533D01*
X025285Y019383D01*
X024825Y019533D02*
X024825Y019082D01*
X023714Y017153D02*
X023865Y017003D01*
X023865Y016702D01*
X023865Y016928D02*
X023564Y016928D01*
X023564Y017003D02*
X023564Y016702D01*
X023404Y016702D02*
X023404Y017153D01*
X023564Y017003D02*
X023714Y017153D01*
X023404Y016702D02*
X023104Y017153D01*
X023104Y016702D01*
X022944Y016702D02*
X022944Y017003D01*
X022794Y017153D01*
X022643Y017003D01*
X022643Y016702D01*
X022643Y016928D02*
X022944Y016928D01*
X022483Y016928D02*
X022183Y016928D01*
X022026Y017153D02*
X021876Y017153D01*
X021951Y017153D02*
X021951Y016702D01*
X021876Y016702D02*
X022026Y016702D01*
X021716Y016778D02*
X021641Y016702D01*
X021416Y016702D01*
X021416Y017153D01*
X021641Y017153D01*
X021716Y017078D01*
X021716Y017003D01*
X021641Y016928D01*
X021416Y016928D01*
X021256Y016778D02*
X021256Y017078D01*
X021181Y017153D01*
X021030Y017153D01*
X020955Y017078D01*
X020955Y016778D01*
X021030Y016702D01*
X021181Y016702D01*
X021256Y016778D01*
X021641Y016928D02*
X021716Y016853D01*
X021716Y016778D01*
X020795Y017078D02*
X020795Y017153D01*
X020795Y017078D02*
X020645Y016928D01*
X020645Y016702D01*
X020645Y016928D02*
X020495Y017078D01*
X020495Y017153D01*
X022433Y015723D02*
X022433Y015272D01*
X022734Y015272D01*
X022894Y015272D02*
X023194Y015272D01*
X023354Y015272D02*
X023579Y015272D01*
X023654Y015348D01*
X023654Y015648D01*
X023579Y015723D01*
X023354Y015723D01*
X023354Y015272D01*
X023044Y015498D02*
X022894Y015498D01*
X022894Y015723D02*
X022894Y015272D01*
X022894Y015723D02*
X023194Y015723D01*
X023815Y015573D02*
X023965Y015723D01*
X023965Y015272D01*
X023815Y015272D02*
X024115Y015272D01*
X025500Y012957D02*
X025500Y010807D01*
X025500Y008957D02*
X025500Y006807D01*
X025220Y002957D02*
X025222Y003028D01*
X025228Y003099D01*
X025238Y003170D01*
X025252Y003239D01*
X025269Y003308D01*
X025291Y003376D01*
X025316Y003443D01*
X025345Y003508D01*
X025377Y003571D01*
X025413Y003633D01*
X025452Y003692D01*
X025495Y003749D01*
X025540Y003804D01*
X025589Y003856D01*
X025640Y003905D01*
X025694Y003951D01*
X025751Y003995D01*
X025809Y004035D01*
X025870Y004071D01*
X025933Y004105D01*
X025998Y004134D01*
X026064Y004160D01*
X026132Y004183D01*
X026200Y004201D01*
X026270Y004216D01*
X026340Y004227D01*
X026411Y004234D01*
X026482Y004237D01*
X026553Y004236D01*
X026624Y004231D01*
X026695Y004222D01*
X026765Y004209D01*
X026834Y004193D01*
X026902Y004172D01*
X026969Y004148D01*
X027035Y004120D01*
X027098Y004088D01*
X027160Y004053D01*
X027220Y004015D01*
X027278Y003973D01*
X027333Y003929D01*
X027386Y003881D01*
X027436Y003830D01*
X027483Y003777D01*
X027527Y003721D01*
X027568Y003663D01*
X027606Y003602D01*
X027640Y003540D01*
X027670Y003475D01*
X027697Y003410D01*
X027721Y003342D01*
X027740Y003274D01*
X027756Y003205D01*
X027768Y003134D01*
X027776Y003064D01*
X027780Y002993D01*
X027780Y002921D01*
X027776Y002850D01*
X027768Y002780D01*
X027756Y002709D01*
X027740Y002640D01*
X027721Y002572D01*
X027697Y002504D01*
X027670Y002439D01*
X027640Y002374D01*
X027606Y002312D01*
X027568Y002251D01*
X027527Y002193D01*
X027483Y002137D01*
X027436Y002084D01*
X027386Y002033D01*
X027333Y001985D01*
X027278Y001941D01*
X027220Y001899D01*
X027160Y001861D01*
X027098Y001826D01*
X027035Y001794D01*
X026969Y001766D01*
X026902Y001742D01*
X026834Y001721D01*
X026765Y001705D01*
X026695Y001692D01*
X026624Y001683D01*
X026553Y001678D01*
X026482Y001677D01*
X026411Y001680D01*
X026340Y001687D01*
X026270Y001698D01*
X026200Y001713D01*
X026132Y001731D01*
X026064Y001754D01*
X025998Y001780D01*
X025933Y001809D01*
X025870Y001843D01*
X025809Y001879D01*
X025751Y001919D01*
X025694Y001963D01*
X025640Y002009D01*
X025589Y002058D01*
X025540Y002110D01*
X025495Y002165D01*
X025452Y002222D01*
X025413Y002281D01*
X025377Y002343D01*
X025345Y002406D01*
X025316Y002471D01*
X025291Y002538D01*
X025269Y002606D01*
X025252Y002675D01*
X025238Y002744D01*
X025228Y002815D01*
X025222Y002886D01*
X025220Y002957D01*
X017785Y009082D02*
X017785Y009158D01*
X018086Y009458D01*
X018086Y009533D01*
X017785Y009533D01*
X017625Y009458D02*
X017625Y009308D01*
X017550Y009233D01*
X017325Y009233D01*
X017475Y009233D02*
X017625Y009082D01*
X017325Y009082D02*
X017325Y009533D01*
X017550Y009533D01*
X017625Y009458D01*
X013575Y012262D02*
X013125Y012262D01*
X013125Y012487D01*
X013200Y012562D01*
X013350Y012562D01*
X013425Y012487D01*
X013425Y012262D01*
X013425Y012412D02*
X013575Y012562D01*
X013500Y012722D02*
X013575Y012797D01*
X013575Y012947D01*
X013500Y013022D01*
X013425Y013022D01*
X013350Y012947D01*
X013350Y012722D01*
X013500Y012722D01*
X013350Y012722D02*
X013200Y012872D01*
X013125Y013022D01*
X011575Y012947D02*
X011575Y012797D01*
X011500Y012722D01*
X011350Y012722D02*
X011275Y012872D01*
X011275Y012947D01*
X011350Y013022D01*
X011500Y013022D01*
X011575Y012947D01*
X011350Y012722D02*
X011125Y012722D01*
X011125Y013022D01*
X011200Y012562D02*
X011350Y012562D01*
X011425Y012487D01*
X011425Y012262D01*
X011425Y012412D02*
X011575Y012562D01*
X011575Y012262D02*
X011125Y012262D01*
X011125Y012487D01*
X011200Y012562D01*
X009575Y013262D02*
X009125Y013262D01*
X009125Y013487D01*
X009200Y013562D01*
X009350Y013562D01*
X009425Y013487D01*
X009425Y013262D01*
X009425Y013412D02*
X009575Y013562D01*
X009350Y013722D02*
X009350Y014022D01*
X009575Y013947D02*
X009125Y013947D01*
X009350Y013722D01*
X008575Y013797D02*
X008500Y013722D01*
X008575Y013797D02*
X008575Y013947D01*
X008500Y014022D01*
X008425Y014022D01*
X008350Y013947D01*
X008350Y013872D01*
X008350Y013947D02*
X008275Y014022D01*
X008200Y014022D01*
X008125Y013947D01*
X008125Y013797D01*
X008200Y013722D01*
X008200Y013562D02*
X008350Y013562D01*
X008425Y013487D01*
X008425Y013262D01*
X008425Y013412D02*
X008575Y013562D01*
X008200Y013562D02*
X008125Y013487D01*
X008125Y013262D01*
X008575Y013262D01*
X009304Y015382D02*
X009304Y015833D01*
X009529Y015833D01*
X009604Y015758D01*
X009604Y015608D01*
X009529Y015533D01*
X009304Y015533D01*
X009454Y015533D02*
X009604Y015382D01*
X009765Y015382D02*
X010065Y015683D01*
X010065Y015758D01*
X009990Y015833D01*
X009840Y015833D01*
X009765Y015758D01*
X009765Y015382D02*
X010065Y015382D01*
X012254Y016958D02*
X012329Y016882D01*
X012479Y016882D01*
X012554Y016958D01*
X012715Y016882D02*
X013015Y016882D01*
X012865Y016882D02*
X012865Y017333D01*
X012715Y017183D01*
X012554Y017258D02*
X012479Y017333D01*
X012329Y017333D01*
X012254Y017258D01*
X012254Y016958D01*
X014125Y016707D02*
X014375Y016457D01*
X014125Y016207D01*
X014125Y015582D01*
X014250Y015457D01*
X014125Y015332D01*
X014125Y014707D01*
X014375Y014457D01*
X015625Y014457D01*
X015875Y014707D01*
X015875Y015332D01*
X015750Y015457D01*
X015875Y015582D01*
X015875Y016207D01*
X015625Y016457D01*
X015875Y016707D01*
X015875Y017332D01*
X015750Y017457D01*
X015875Y017582D01*
X015875Y018207D01*
X015625Y018457D01*
X015875Y018707D01*
X015875Y019332D01*
X015750Y019457D01*
X015875Y019582D01*
X015875Y020207D01*
X015625Y020457D01*
X015875Y020707D01*
X015875Y021332D01*
X015750Y021457D01*
X015875Y021582D01*
X015875Y022207D01*
X015625Y022457D01*
X015875Y022707D01*
X015875Y023332D01*
X015750Y023457D01*
X015875Y023582D01*
X015875Y024207D01*
X015625Y024457D01*
X014375Y024457D01*
X014125Y024207D01*
X014125Y023582D01*
X014250Y023457D01*
X014125Y023332D01*
X014125Y022707D01*
X014375Y022457D01*
X014125Y022207D01*
X014125Y021582D01*
X014250Y021457D01*
X014125Y021332D01*
X014125Y020707D01*
X014375Y020457D01*
X014125Y020207D01*
X014125Y019582D01*
X014250Y019457D01*
X014125Y019332D01*
X014125Y018707D01*
X014375Y018457D01*
X014125Y018207D01*
X014125Y017582D01*
X014250Y017457D01*
X014125Y017332D01*
X014125Y016707D01*
X011215Y018882D02*
X010915Y018882D01*
X011065Y018882D02*
X011065Y019333D01*
X010915Y019183D01*
X010754Y019258D02*
X010679Y019333D01*
X010529Y019333D01*
X010454Y019258D01*
X010454Y019183D01*
X010529Y019108D01*
X010679Y019108D01*
X010754Y019033D01*
X010754Y018958D01*
X010679Y018882D01*
X010529Y018882D01*
X010454Y018958D01*
X010294Y018958D02*
X010294Y019333D01*
X009994Y019333D02*
X009994Y018958D01*
X010069Y018882D01*
X010219Y018882D01*
X010294Y018958D01*
X010604Y018807D02*
X010604Y019408D01*
X007954Y018503D02*
X007954Y018232D01*
X007864Y018232D02*
X008044Y018232D01*
X007864Y018413D02*
X007954Y018503D01*
X007750Y018503D02*
X007750Y018232D01*
X007660Y018323D01*
X007570Y018232D01*
X007570Y018503D01*
X007455Y018458D02*
X007410Y018503D01*
X007320Y018503D01*
X007275Y018458D01*
X007275Y018413D01*
X007320Y018368D01*
X007410Y018368D01*
X007455Y018323D01*
X007455Y018278D01*
X007410Y018232D01*
X007320Y018232D01*
X007275Y018278D01*
X008000Y021957D02*
X008000Y023957D01*
X012000Y023957D01*
X012000Y021957D01*
X008000Y021957D01*
X003720Y023457D02*
X003722Y023528D01*
X003728Y023599D01*
X003738Y023670D01*
X003752Y023739D01*
X003769Y023808D01*
X003791Y023876D01*
X003816Y023943D01*
X003845Y024008D01*
X003877Y024071D01*
X003913Y024133D01*
X003952Y024192D01*
X003995Y024249D01*
X004040Y024304D01*
X004089Y024356D01*
X004140Y024405D01*
X004194Y024451D01*
X004251Y024495D01*
X004309Y024535D01*
X004370Y024571D01*
X004433Y024605D01*
X004498Y024634D01*
X004564Y024660D01*
X004632Y024683D01*
X004700Y024701D01*
X004770Y024716D01*
X004840Y024727D01*
X004911Y024734D01*
X004982Y024737D01*
X005053Y024736D01*
X005124Y024731D01*
X005195Y024722D01*
X005265Y024709D01*
X005334Y024693D01*
X005402Y024672D01*
X005469Y024648D01*
X005535Y024620D01*
X005598Y024588D01*
X005660Y024553D01*
X005720Y024515D01*
X005778Y024473D01*
X005833Y024429D01*
X005886Y024381D01*
X005936Y024330D01*
X005983Y024277D01*
X006027Y024221D01*
X006068Y024163D01*
X006106Y024102D01*
X006140Y024040D01*
X006170Y023975D01*
X006197Y023910D01*
X006221Y023842D01*
X006240Y023774D01*
X006256Y023705D01*
X006268Y023634D01*
X006276Y023564D01*
X006280Y023493D01*
X006280Y023421D01*
X006276Y023350D01*
X006268Y023280D01*
X006256Y023209D01*
X006240Y023140D01*
X006221Y023072D01*
X006197Y023004D01*
X006170Y022939D01*
X006140Y022874D01*
X006106Y022812D01*
X006068Y022751D01*
X006027Y022693D01*
X005983Y022637D01*
X005936Y022584D01*
X005886Y022533D01*
X005833Y022485D01*
X005778Y022441D01*
X005720Y022399D01*
X005660Y022361D01*
X005598Y022326D01*
X005535Y022294D01*
X005469Y022266D01*
X005402Y022242D01*
X005334Y022221D01*
X005265Y022205D01*
X005195Y022192D01*
X005124Y022183D01*
X005053Y022178D01*
X004982Y022177D01*
X004911Y022180D01*
X004840Y022187D01*
X004770Y022198D01*
X004700Y022213D01*
X004632Y022231D01*
X004564Y022254D01*
X004498Y022280D01*
X004433Y022309D01*
X004370Y022343D01*
X004309Y022379D01*
X004251Y022419D01*
X004194Y022463D01*
X004140Y022509D01*
X004089Y022558D01*
X004040Y022610D01*
X003995Y022665D01*
X003952Y022722D01*
X003913Y022781D01*
X003877Y022843D01*
X003845Y022906D01*
X003816Y022971D01*
X003791Y023038D01*
X003769Y023106D01*
X003752Y023175D01*
X003738Y023244D01*
X003728Y023315D01*
X003722Y023386D01*
X003720Y023457D01*
X003720Y002957D02*
X003722Y003028D01*
X003728Y003099D01*
X003738Y003170D01*
X003752Y003239D01*
X003769Y003308D01*
X003791Y003376D01*
X003816Y003443D01*
X003845Y003508D01*
X003877Y003571D01*
X003913Y003633D01*
X003952Y003692D01*
X003995Y003749D01*
X004040Y003804D01*
X004089Y003856D01*
X004140Y003905D01*
X004194Y003951D01*
X004251Y003995D01*
X004309Y004035D01*
X004370Y004071D01*
X004433Y004105D01*
X004498Y004134D01*
X004564Y004160D01*
X004632Y004183D01*
X004700Y004201D01*
X004770Y004216D01*
X004840Y004227D01*
X004911Y004234D01*
X004982Y004237D01*
X005053Y004236D01*
X005124Y004231D01*
X005195Y004222D01*
X005265Y004209D01*
X005334Y004193D01*
X005402Y004172D01*
X005469Y004148D01*
X005535Y004120D01*
X005598Y004088D01*
X005660Y004053D01*
X005720Y004015D01*
X005778Y003973D01*
X005833Y003929D01*
X005886Y003881D01*
X005936Y003830D01*
X005983Y003777D01*
X006027Y003721D01*
X006068Y003663D01*
X006106Y003602D01*
X006140Y003540D01*
X006170Y003475D01*
X006197Y003410D01*
X006221Y003342D01*
X006240Y003274D01*
X006256Y003205D01*
X006268Y003134D01*
X006276Y003064D01*
X006280Y002993D01*
X006280Y002921D01*
X006276Y002850D01*
X006268Y002780D01*
X006256Y002709D01*
X006240Y002640D01*
X006221Y002572D01*
X006197Y002504D01*
X006170Y002439D01*
X006140Y002374D01*
X006106Y002312D01*
X006068Y002251D01*
X006027Y002193D01*
X005983Y002137D01*
X005936Y002084D01*
X005886Y002033D01*
X005833Y001985D01*
X005778Y001941D01*
X005720Y001899D01*
X005660Y001861D01*
X005598Y001826D01*
X005535Y001794D01*
X005469Y001766D01*
X005402Y001742D01*
X005334Y001721D01*
X005265Y001705D01*
X005195Y001692D01*
X005124Y001683D01*
X005053Y001678D01*
X004982Y001677D01*
X004911Y001680D01*
X004840Y001687D01*
X004770Y001698D01*
X004700Y001713D01*
X004632Y001731D01*
X004564Y001754D01*
X004498Y001780D01*
X004433Y001809D01*
X004370Y001843D01*
X004309Y001879D01*
X004251Y001919D01*
X004194Y001963D01*
X004140Y002009D01*
X004089Y002058D01*
X004040Y002110D01*
X003995Y002165D01*
X003952Y002222D01*
X003913Y002281D01*
X003877Y002343D01*
X003845Y002406D01*
X003816Y002471D01*
X003791Y002538D01*
X003769Y002606D01*
X003752Y002675D01*
X003738Y002744D01*
X003728Y002815D01*
X003722Y002886D01*
X003720Y002957D01*
X025220Y023457D02*
X025222Y023528D01*
X025228Y023599D01*
X025238Y023670D01*
X025252Y023739D01*
X025269Y023808D01*
X025291Y023876D01*
X025316Y023943D01*
X025345Y024008D01*
X025377Y024071D01*
X025413Y024133D01*
X025452Y024192D01*
X025495Y024249D01*
X025540Y024304D01*
X025589Y024356D01*
X025640Y024405D01*
X025694Y024451D01*
X025751Y024495D01*
X025809Y024535D01*
X025870Y024571D01*
X025933Y024605D01*
X025998Y024634D01*
X026064Y024660D01*
X026132Y024683D01*
X026200Y024701D01*
X026270Y024716D01*
X026340Y024727D01*
X026411Y024734D01*
X026482Y024737D01*
X026553Y024736D01*
X026624Y024731D01*
X026695Y024722D01*
X026765Y024709D01*
X026834Y024693D01*
X026902Y024672D01*
X026969Y024648D01*
X027035Y024620D01*
X027098Y024588D01*
X027160Y024553D01*
X027220Y024515D01*
X027278Y024473D01*
X027333Y024429D01*
X027386Y024381D01*
X027436Y024330D01*
X027483Y024277D01*
X027527Y024221D01*
X027568Y024163D01*
X027606Y024102D01*
X027640Y024040D01*
X027670Y023975D01*
X027697Y023910D01*
X027721Y023842D01*
X027740Y023774D01*
X027756Y023705D01*
X027768Y023634D01*
X027776Y023564D01*
X027780Y023493D01*
X027780Y023421D01*
X027776Y023350D01*
X027768Y023280D01*
X027756Y023209D01*
X027740Y023140D01*
X027721Y023072D01*
X027697Y023004D01*
X027670Y022939D01*
X027640Y022874D01*
X027606Y022812D01*
X027568Y022751D01*
X027527Y022693D01*
X027483Y022637D01*
X027436Y022584D01*
X027386Y022533D01*
X027333Y022485D01*
X027278Y022441D01*
X027220Y022399D01*
X027160Y022361D01*
X027098Y022326D01*
X027035Y022294D01*
X026969Y022266D01*
X026902Y022242D01*
X026834Y022221D01*
X026765Y022205D01*
X026695Y022192D01*
X026624Y022183D01*
X026553Y022178D01*
X026482Y022177D01*
X026411Y022180D01*
X026340Y022187D01*
X026270Y022198D01*
X026200Y022213D01*
X026132Y022231D01*
X026064Y022254D01*
X025998Y022280D01*
X025933Y022309D01*
X025870Y022343D01*
X025809Y022379D01*
X025751Y022419D01*
X025694Y022463D01*
X025640Y022509D01*
X025589Y022558D01*
X025540Y022610D01*
X025495Y022665D01*
X025452Y022722D01*
X025413Y022781D01*
X025377Y022843D01*
X025345Y022906D01*
X025316Y022971D01*
X025291Y023038D01*
X025269Y023106D01*
X025252Y023175D01*
X025238Y023244D01*
X025228Y023315D01*
X025222Y023386D01*
X025220Y023457D01*
D15*
X024500Y016707D02*
X024500Y015207D01*
D16*
X024468Y015177D02*
X024540Y015231D01*
X024539Y015230D02*
X024582Y015177D01*
X024627Y015126D01*
X024676Y015078D01*
X024727Y015033D01*
X024781Y014990D01*
X024837Y014951D01*
X024895Y014915D01*
X024955Y014882D01*
X025016Y014853D01*
X025080Y014828D01*
X025144Y014806D01*
X025210Y014787D01*
X025277Y014773D01*
X025344Y014762D01*
X025412Y014755D01*
X025480Y014752D01*
X025549Y014753D01*
X025617Y014758D01*
X025685Y014766D01*
X025752Y014779D01*
X025818Y014795D01*
X025883Y014815D01*
X025948Y014838D01*
X026010Y014865D01*
X026071Y014896D01*
X026130Y014930D01*
X026188Y014967D01*
X026243Y015008D01*
X026295Y015052D01*
X026345Y015098D01*
X026392Y015147D01*
X026437Y015199D01*
X026478Y015253D01*
X026517Y015310D01*
X026552Y015369D01*
X026583Y015429D01*
X026611Y015491D01*
X026636Y015555D01*
X026657Y015620D01*
X026674Y015686D01*
X026688Y015753D01*
X026697Y015821D01*
X026703Y015889D01*
X026705Y015957D01*
X026703Y016025D01*
X026697Y016093D01*
X026688Y016161D01*
X026674Y016228D01*
X026657Y016294D01*
X026636Y016359D01*
X026611Y016423D01*
X026583Y016485D01*
X026552Y016545D01*
X026517Y016604D01*
X026478Y016661D01*
X026437Y016715D01*
X026392Y016767D01*
X026345Y016816D01*
X026295Y016862D01*
X026243Y016906D01*
X026188Y016947D01*
X026130Y016984D01*
X026071Y017018D01*
X026010Y017049D01*
X025948Y017076D01*
X025883Y017099D01*
X025818Y017119D01*
X025752Y017135D01*
X025685Y017148D01*
X025617Y017156D01*
X025549Y017161D01*
X025480Y017162D01*
X025412Y017159D01*
X025344Y017152D01*
X025277Y017141D01*
X025210Y017127D01*
X025144Y017108D01*
X025080Y017086D01*
X025016Y017061D01*
X024955Y017032D01*
X024895Y016999D01*
X024837Y016963D01*
X024781Y016924D01*
X024727Y016881D01*
X024676Y016836D01*
X024627Y016788D01*
X024582Y016737D01*
X024539Y016684D01*
X024468Y016737D01*
X024467Y016738D01*
X024511Y016793D01*
X024559Y016846D01*
X024609Y016897D01*
X024662Y016944D01*
X024717Y016988D01*
X024775Y017030D01*
X024835Y017068D01*
X024896Y017103D01*
X024960Y017134D01*
X025025Y017162D01*
X025092Y017186D01*
X025160Y017207D01*
X025229Y017223D01*
X025299Y017236D01*
X025369Y017245D01*
X025440Y017251D01*
X025511Y017252D01*
X025582Y017249D01*
X025653Y017243D01*
X025723Y017233D01*
X025792Y017219D01*
X025861Y017201D01*
X025929Y017179D01*
X025995Y017154D01*
X026060Y017125D01*
X026123Y017092D01*
X026184Y017056D01*
X026243Y017017D01*
X026300Y016975D01*
X026355Y016930D01*
X026407Y016881D01*
X026456Y016830D01*
X026503Y016777D01*
X026546Y016720D01*
X026586Y016662D01*
X026623Y016601D01*
X026657Y016539D01*
X026687Y016475D01*
X026714Y016409D01*
X026737Y016342D01*
X026756Y016273D01*
X026771Y016204D01*
X026783Y016134D01*
X026791Y016063D01*
X026795Y015992D01*
X026795Y015922D01*
X026791Y015851D01*
X026783Y015780D01*
X026771Y015710D01*
X026756Y015641D01*
X026737Y015572D01*
X026714Y015505D01*
X026687Y015439D01*
X026657Y015375D01*
X026623Y015313D01*
X026586Y015252D01*
X026546Y015194D01*
X026503Y015137D01*
X026456Y015084D01*
X026407Y015033D01*
X026355Y014984D01*
X026300Y014939D01*
X026243Y014897D01*
X026184Y014858D01*
X026123Y014822D01*
X026060Y014789D01*
X025995Y014760D01*
X025929Y014735D01*
X025861Y014713D01*
X025792Y014695D01*
X025723Y014681D01*
X025653Y014671D01*
X025582Y014665D01*
X025511Y014662D01*
X025440Y014663D01*
X025369Y014669D01*
X025299Y014678D01*
X025229Y014691D01*
X025160Y014707D01*
X025092Y014728D01*
X025025Y014752D01*
X024960Y014780D01*
X024896Y014811D01*
X024835Y014846D01*
X024775Y014884D01*
X024717Y014926D01*
X024662Y014970D01*
X024609Y015017D01*
X024559Y015068D01*
X024511Y015121D01*
X024467Y015176D01*
X024474Y015181D01*
X024519Y015126D01*
X024566Y015073D01*
X024617Y015022D01*
X024670Y014975D01*
X024726Y014930D01*
X024784Y014889D01*
X024844Y014851D01*
X024906Y014816D01*
X024970Y014785D01*
X025036Y014758D01*
X025103Y014734D01*
X025172Y014714D01*
X025241Y014697D01*
X025311Y014685D01*
X025382Y014676D01*
X025453Y014672D01*
X025524Y014671D01*
X025595Y014675D01*
X025666Y014682D01*
X025737Y014693D01*
X025806Y014708D01*
X025875Y014727D01*
X025943Y014750D01*
X026009Y014776D01*
X026074Y014806D01*
X026136Y014840D01*
X026197Y014876D01*
X026256Y014917D01*
X026313Y014960D01*
X026367Y015007D01*
X026418Y015056D01*
X026466Y015109D01*
X026512Y015163D01*
X026554Y015221D01*
X026593Y015280D01*
X026629Y015342D01*
X026662Y015405D01*
X026690Y015470D01*
X026716Y015537D01*
X026737Y015605D01*
X026755Y015674D01*
X026768Y015744D01*
X026778Y015815D01*
X026784Y015886D01*
X026786Y015957D01*
X026784Y016028D01*
X026778Y016099D01*
X026768Y016170D01*
X026755Y016240D01*
X026737Y016309D01*
X026716Y016377D01*
X026690Y016444D01*
X026662Y016509D01*
X026629Y016572D01*
X026593Y016634D01*
X026554Y016693D01*
X026512Y016751D01*
X026466Y016805D01*
X026418Y016858D01*
X026367Y016907D01*
X026313Y016954D01*
X026256Y016997D01*
X026197Y017038D01*
X026136Y017074D01*
X026074Y017108D01*
X026009Y017138D01*
X025943Y017164D01*
X025875Y017187D01*
X025806Y017206D01*
X025737Y017221D01*
X025666Y017232D01*
X025595Y017239D01*
X025524Y017243D01*
X025453Y017242D01*
X025382Y017238D01*
X025311Y017229D01*
X025241Y017217D01*
X025172Y017200D01*
X025103Y017180D01*
X025036Y017156D01*
X024970Y017129D01*
X024906Y017098D01*
X024844Y017063D01*
X024784Y017025D01*
X024726Y016984D01*
X024670Y016939D01*
X024617Y016892D01*
X024566Y016841D01*
X024519Y016788D01*
X024474Y016733D01*
X024481Y016727D01*
X024526Y016782D01*
X024573Y016835D01*
X024623Y016885D01*
X024676Y016932D01*
X024731Y016976D01*
X024789Y017018D01*
X024848Y017055D01*
X024910Y017090D01*
X024974Y017121D01*
X025039Y017148D01*
X025106Y017172D01*
X025174Y017192D01*
X025243Y017208D01*
X025312Y017220D01*
X025383Y017229D01*
X025453Y017233D01*
X025524Y017234D01*
X025595Y017230D01*
X025665Y017223D01*
X025735Y017212D01*
X025804Y017197D01*
X025872Y017178D01*
X025940Y017156D01*
X026005Y017130D01*
X026070Y017100D01*
X026132Y017067D01*
X026192Y017030D01*
X026251Y016990D01*
X026307Y016947D01*
X026361Y016901D01*
X026411Y016851D01*
X026460Y016800D01*
X026505Y016745D01*
X026547Y016688D01*
X026586Y016629D01*
X026621Y016568D01*
X026654Y016505D01*
X026682Y016440D01*
X026707Y016374D01*
X026728Y016306D01*
X026746Y016238D01*
X026759Y016168D01*
X026769Y016098D01*
X026775Y016028D01*
X026777Y015957D01*
X026775Y015886D01*
X026769Y015816D01*
X026759Y015746D01*
X026746Y015676D01*
X026728Y015608D01*
X026707Y015540D01*
X026682Y015474D01*
X026654Y015409D01*
X026621Y015346D01*
X026586Y015285D01*
X026547Y015226D01*
X026505Y015169D01*
X026460Y015114D01*
X026411Y015063D01*
X026361Y015013D01*
X026307Y014967D01*
X026251Y014924D01*
X026192Y014884D01*
X026132Y014847D01*
X026070Y014814D01*
X026005Y014784D01*
X025940Y014758D01*
X025872Y014736D01*
X025804Y014717D01*
X025735Y014702D01*
X025665Y014691D01*
X025595Y014684D01*
X025524Y014680D01*
X025453Y014681D01*
X025383Y014685D01*
X025312Y014694D01*
X025243Y014706D01*
X025174Y014722D01*
X025106Y014742D01*
X025039Y014766D01*
X024974Y014793D01*
X024910Y014824D01*
X024848Y014859D01*
X024789Y014896D01*
X024731Y014938D01*
X024676Y014982D01*
X024623Y015029D01*
X024573Y015079D01*
X024526Y015132D01*
X024481Y015187D01*
X024489Y015192D01*
X024533Y015137D01*
X024581Y015084D01*
X024631Y015034D01*
X024684Y014986D01*
X024740Y014942D01*
X024798Y014901D01*
X024858Y014864D01*
X024920Y014829D01*
X024984Y014799D01*
X025050Y014772D01*
X025117Y014748D01*
X025185Y014729D01*
X025255Y014713D01*
X025325Y014701D01*
X025395Y014693D01*
X025466Y014689D01*
X025537Y014690D01*
X025608Y014694D01*
X025679Y014702D01*
X025749Y014714D01*
X025818Y014730D01*
X025886Y014749D01*
X025954Y014773D01*
X026019Y014800D01*
X026083Y014831D01*
X026145Y014865D01*
X026205Y014903D01*
X026263Y014945D01*
X026319Y014989D01*
X026372Y015036D01*
X026422Y015087D01*
X026469Y015140D01*
X026514Y015195D01*
X026555Y015253D01*
X026592Y015313D01*
X026627Y015376D01*
X026658Y015440D01*
X026685Y015505D01*
X026708Y015572D01*
X026728Y015641D01*
X026744Y015710D01*
X026756Y015780D01*
X026764Y015851D01*
X026768Y015921D01*
X026768Y015993D01*
X026764Y016063D01*
X026756Y016134D01*
X026744Y016204D01*
X026728Y016273D01*
X026708Y016342D01*
X026685Y016409D01*
X026658Y016474D01*
X026627Y016538D01*
X026592Y016601D01*
X026555Y016661D01*
X026514Y016719D01*
X026469Y016774D01*
X026422Y016827D01*
X026372Y016878D01*
X026319Y016925D01*
X026263Y016969D01*
X026205Y017011D01*
X026145Y017049D01*
X026083Y017083D01*
X026019Y017114D01*
X025954Y017141D01*
X025886Y017165D01*
X025818Y017184D01*
X025749Y017200D01*
X025679Y017212D01*
X025608Y017220D01*
X025537Y017224D01*
X025466Y017225D01*
X025395Y017221D01*
X025325Y017213D01*
X025255Y017201D01*
X025185Y017185D01*
X025117Y017166D01*
X025050Y017142D01*
X024984Y017115D01*
X024920Y017085D01*
X024858Y017050D01*
X024798Y017013D01*
X024740Y016972D01*
X024684Y016928D01*
X024631Y016880D01*
X024581Y016830D01*
X024533Y016777D01*
X024489Y016722D01*
X024496Y016716D01*
X024540Y016771D01*
X024587Y016824D01*
X024637Y016874D01*
X024690Y016921D01*
X024745Y016965D01*
X024803Y017005D01*
X024862Y017043D01*
X024924Y017077D01*
X024988Y017107D01*
X025053Y017134D01*
X025120Y017157D01*
X025188Y017177D01*
X025256Y017192D01*
X025326Y017204D01*
X025396Y017212D01*
X025467Y017216D01*
X025537Y017215D01*
X025608Y017211D01*
X025678Y017203D01*
X025747Y017191D01*
X025816Y017176D01*
X025884Y017156D01*
X025950Y017133D01*
X026015Y017106D01*
X026079Y017075D01*
X026141Y017041D01*
X026200Y017003D01*
X026258Y016962D01*
X026313Y016918D01*
X026366Y016871D01*
X026415Y016821D01*
X026462Y016769D01*
X026506Y016713D01*
X026547Y016656D01*
X026585Y016596D01*
X026619Y016534D01*
X026649Y016471D01*
X026676Y016406D01*
X026700Y016339D01*
X026719Y016271D01*
X026735Y016202D01*
X026747Y016133D01*
X026755Y016063D01*
X026759Y015992D01*
X026759Y015922D01*
X026755Y015851D01*
X026747Y015781D01*
X026735Y015712D01*
X026719Y015643D01*
X026700Y015575D01*
X026676Y015508D01*
X026649Y015443D01*
X026619Y015380D01*
X026585Y015318D01*
X026547Y015258D01*
X026506Y015201D01*
X026462Y015145D01*
X026415Y015093D01*
X026366Y015043D01*
X026313Y014996D01*
X026258Y014952D01*
X026200Y014911D01*
X026141Y014873D01*
X026079Y014839D01*
X026015Y014808D01*
X025950Y014781D01*
X025884Y014758D01*
X025816Y014738D01*
X025747Y014723D01*
X025678Y014711D01*
X025608Y014703D01*
X025537Y014699D01*
X025467Y014698D01*
X025396Y014702D01*
X025326Y014710D01*
X025256Y014722D01*
X025188Y014737D01*
X025120Y014757D01*
X025053Y014780D01*
X024988Y014807D01*
X024924Y014837D01*
X024862Y014871D01*
X024803Y014909D01*
X024745Y014949D01*
X024690Y014993D01*
X024637Y015040D01*
X024587Y015090D01*
X024540Y015143D01*
X024496Y015198D01*
X024503Y015203D01*
X024547Y015148D01*
X024594Y015096D01*
X024643Y015047D01*
X024696Y015000D01*
X024750Y014957D01*
X024808Y014916D01*
X024867Y014879D01*
X024928Y014845D01*
X024992Y014815D01*
X025056Y014788D01*
X025123Y014765D01*
X025190Y014746D01*
X025258Y014731D01*
X025327Y014719D01*
X025397Y014711D01*
X025467Y014707D01*
X025537Y014708D01*
X025607Y014712D01*
X025676Y014720D01*
X025745Y014731D01*
X025814Y014747D01*
X025881Y014766D01*
X025947Y014790D01*
X026012Y014817D01*
X026075Y014847D01*
X026136Y014881D01*
X026195Y014918D01*
X026253Y014959D01*
X026307Y015003D01*
X026359Y015049D01*
X026409Y015099D01*
X026456Y015151D01*
X026499Y015206D01*
X026540Y015263D01*
X026577Y015322D01*
X026611Y015384D01*
X026641Y015447D01*
X026668Y015512D01*
X026691Y015578D01*
X026710Y015645D01*
X026726Y015713D01*
X026738Y015782D01*
X026746Y015852D01*
X026750Y015922D01*
X026750Y015992D01*
X026746Y016062D01*
X026738Y016132D01*
X026726Y016201D01*
X026710Y016269D01*
X026691Y016336D01*
X026668Y016402D01*
X026641Y016467D01*
X026611Y016530D01*
X026577Y016592D01*
X026540Y016651D01*
X026499Y016708D01*
X026456Y016763D01*
X026409Y016815D01*
X026359Y016865D01*
X026307Y016911D01*
X026253Y016955D01*
X026195Y016996D01*
X026136Y017033D01*
X026075Y017067D01*
X026012Y017097D01*
X025947Y017124D01*
X025881Y017148D01*
X025814Y017167D01*
X025745Y017183D01*
X025676Y017194D01*
X025607Y017202D01*
X025537Y017206D01*
X025467Y017207D01*
X025397Y017203D01*
X025327Y017195D01*
X025258Y017183D01*
X025190Y017168D01*
X025123Y017149D01*
X025056Y017126D01*
X024992Y017099D01*
X024928Y017069D01*
X024867Y017035D01*
X024808Y016998D01*
X024750Y016957D01*
X024696Y016914D01*
X024643Y016867D01*
X024594Y016818D01*
X024547Y016766D01*
X024503Y016711D01*
X024510Y016706D01*
X024554Y016760D01*
X024600Y016812D01*
X024649Y016861D01*
X024701Y016907D01*
X024756Y016950D01*
X024813Y016990D01*
X024872Y017027D01*
X024933Y017061D01*
X024995Y017091D01*
X025060Y017117D01*
X025125Y017140D01*
X025192Y017159D01*
X025260Y017175D01*
X025329Y017186D01*
X025398Y017194D01*
X025467Y017198D01*
X025537Y017197D01*
X025606Y017193D01*
X025675Y017186D01*
X025744Y017174D01*
X025811Y017158D01*
X025878Y017139D01*
X025944Y017116D01*
X026008Y017089D01*
X026071Y017059D01*
X026132Y017025D01*
X026190Y016988D01*
X026247Y016948D01*
X026301Y016905D01*
X026353Y016858D01*
X026402Y016809D01*
X026449Y016757D01*
X026492Y016703D01*
X026532Y016646D01*
X026569Y016587D01*
X026603Y016526D01*
X026633Y016463D01*
X026660Y016399D01*
X026683Y016334D01*
X026702Y016267D01*
X026717Y016199D01*
X026729Y016130D01*
X026737Y016061D01*
X026741Y015992D01*
X026741Y015922D01*
X026737Y015853D01*
X026729Y015784D01*
X026717Y015715D01*
X026702Y015647D01*
X026683Y015580D01*
X026660Y015515D01*
X026633Y015451D01*
X026603Y015388D01*
X026569Y015327D01*
X026532Y015268D01*
X026492Y015211D01*
X026449Y015157D01*
X026402Y015105D01*
X026353Y015056D01*
X026301Y015009D01*
X026247Y014966D01*
X026190Y014926D01*
X026132Y014889D01*
X026071Y014855D01*
X026008Y014825D01*
X025944Y014798D01*
X025878Y014775D01*
X025811Y014756D01*
X025744Y014740D01*
X025675Y014728D01*
X025606Y014721D01*
X025537Y014717D01*
X025467Y014716D01*
X025398Y014720D01*
X025329Y014728D01*
X025260Y014739D01*
X025192Y014755D01*
X025125Y014774D01*
X025060Y014797D01*
X024995Y014823D01*
X024933Y014853D01*
X024872Y014887D01*
X024813Y014924D01*
X024756Y014964D01*
X024701Y015007D01*
X024649Y015053D01*
X024600Y015102D01*
X024554Y015154D01*
X024510Y015208D01*
X024517Y015214D01*
X024561Y015160D01*
X024607Y015109D01*
X024656Y015060D01*
X024707Y015014D01*
X024761Y014971D01*
X024818Y014931D01*
X024876Y014895D01*
X024937Y014861D01*
X024999Y014831D01*
X025063Y014805D01*
X025128Y014783D01*
X025194Y014764D01*
X025262Y014748D01*
X025330Y014737D01*
X025398Y014729D01*
X025467Y014725D01*
X025536Y014726D01*
X025605Y014730D01*
X025674Y014737D01*
X025742Y014749D01*
X025809Y014764D01*
X025876Y014784D01*
X025941Y014807D01*
X026004Y014833D01*
X026067Y014863D01*
X026127Y014896D01*
X026185Y014933D01*
X026242Y014973D01*
X026296Y015016D01*
X026347Y015062D01*
X026396Y015111D01*
X026442Y015163D01*
X026485Y015217D01*
X026525Y015273D01*
X026561Y015332D01*
X026595Y015392D01*
X026625Y015454D01*
X026651Y015518D01*
X026674Y015583D01*
X026693Y015650D01*
X026708Y015717D01*
X026720Y015785D01*
X026728Y015854D01*
X026732Y015922D01*
X026732Y015992D01*
X026728Y016060D01*
X026720Y016129D01*
X026708Y016197D01*
X026693Y016264D01*
X026674Y016331D01*
X026651Y016396D01*
X026625Y016460D01*
X026595Y016522D01*
X026561Y016582D01*
X026525Y016641D01*
X026485Y016697D01*
X026442Y016751D01*
X026396Y016803D01*
X026347Y016852D01*
X026296Y016898D01*
X026242Y016941D01*
X026185Y016981D01*
X026127Y017018D01*
X026067Y017051D01*
X026004Y017081D01*
X025941Y017107D01*
X025876Y017130D01*
X025809Y017150D01*
X025742Y017165D01*
X025674Y017177D01*
X025605Y017184D01*
X025536Y017188D01*
X025467Y017189D01*
X025398Y017185D01*
X025330Y017177D01*
X025262Y017166D01*
X025194Y017150D01*
X025128Y017131D01*
X025063Y017109D01*
X024999Y017083D01*
X024937Y017053D01*
X024876Y017019D01*
X024818Y016983D01*
X024761Y016943D01*
X024707Y016900D01*
X024656Y016854D01*
X024607Y016805D01*
X024561Y016754D01*
X024517Y016700D01*
X024525Y016695D01*
X024568Y016749D01*
X024614Y016800D01*
X024664Y016849D01*
X024715Y016895D01*
X024770Y016938D01*
X024827Y016978D01*
X024885Y017014D01*
X024946Y017048D01*
X025009Y017077D01*
X025073Y017103D01*
X025139Y017125D01*
X025206Y017144D01*
X025273Y017159D01*
X025342Y017170D01*
X025411Y017177D01*
X025480Y017180D01*
X025549Y017179D01*
X025619Y017174D01*
X025687Y017166D01*
X025755Y017153D01*
X025823Y017137D01*
X025889Y017116D01*
X025954Y017093D01*
X026018Y017065D01*
X026080Y017034D01*
X026140Y016999D01*
X026198Y016961D01*
X026254Y016920D01*
X026307Y016876D01*
X026358Y016829D01*
X026406Y016779D01*
X026451Y016726D01*
X026493Y016671D01*
X026532Y016614D01*
X026567Y016554D01*
X026599Y016493D01*
X026628Y016430D01*
X026653Y016365D01*
X026674Y016299D01*
X026692Y016232D01*
X026705Y016164D01*
X026715Y016095D01*
X026721Y016026D01*
X026723Y015957D01*
X026721Y015888D01*
X026715Y015819D01*
X026705Y015750D01*
X026692Y015682D01*
X026674Y015615D01*
X026653Y015549D01*
X026628Y015484D01*
X026599Y015421D01*
X026567Y015360D01*
X026532Y015300D01*
X026493Y015243D01*
X026451Y015188D01*
X026406Y015135D01*
X026358Y015085D01*
X026307Y015038D01*
X026254Y014994D01*
X026198Y014953D01*
X026140Y014915D01*
X026080Y014880D01*
X026018Y014849D01*
X025954Y014821D01*
X025889Y014798D01*
X025823Y014777D01*
X025755Y014761D01*
X025687Y014748D01*
X025619Y014740D01*
X025549Y014735D01*
X025480Y014734D01*
X025411Y014737D01*
X025342Y014744D01*
X025273Y014755D01*
X025206Y014770D01*
X025139Y014789D01*
X025073Y014811D01*
X025009Y014837D01*
X024946Y014866D01*
X024885Y014900D01*
X024827Y014936D01*
X024770Y014976D01*
X024715Y015019D01*
X024664Y015065D01*
X024614Y015114D01*
X024568Y015165D01*
X024525Y015219D01*
X024532Y015225D01*
X024575Y015171D01*
X024621Y015120D01*
X024670Y015071D01*
X024721Y015026D01*
X024775Y014983D01*
X024832Y014944D01*
X024890Y014907D01*
X024950Y014874D01*
X025013Y014845D01*
X025076Y014819D01*
X025142Y014797D01*
X025208Y014779D01*
X025275Y014764D01*
X025343Y014753D01*
X025412Y014746D01*
X025480Y014743D01*
X025549Y014744D01*
X025618Y014749D01*
X025686Y014757D01*
X025754Y014770D01*
X025820Y014786D01*
X025886Y014806D01*
X025951Y014830D01*
X026014Y014857D01*
X026075Y014888D01*
X026135Y014922D01*
X026193Y014960D01*
X026248Y015001D01*
X026301Y015045D01*
X026351Y015092D01*
X026399Y015141D01*
X026444Y015193D01*
X026486Y015248D01*
X026524Y015305D01*
X026559Y015364D01*
X026591Y015425D01*
X026620Y015488D01*
X026644Y015552D01*
X026666Y015618D01*
X026683Y015684D01*
X026696Y015752D01*
X026706Y015820D01*
X026712Y015888D01*
X026714Y015957D01*
X026712Y016026D01*
X026706Y016094D01*
X026696Y016162D01*
X026683Y016230D01*
X026666Y016296D01*
X026644Y016362D01*
X026620Y016426D01*
X026591Y016489D01*
X026559Y016550D01*
X026524Y016609D01*
X026486Y016666D01*
X026444Y016721D01*
X026399Y016773D01*
X026351Y016822D01*
X026301Y016869D01*
X026248Y016913D01*
X026193Y016954D01*
X026135Y016992D01*
X026075Y017026D01*
X026014Y017057D01*
X025951Y017084D01*
X025886Y017108D01*
X025820Y017128D01*
X025754Y017144D01*
X025686Y017157D01*
X025618Y017165D01*
X025549Y017170D01*
X025480Y017171D01*
X025412Y017168D01*
X025343Y017161D01*
X025275Y017150D01*
X025208Y017135D01*
X025142Y017117D01*
X025076Y017095D01*
X025013Y017069D01*
X024950Y017040D01*
X024890Y017007D01*
X024832Y016970D01*
X024775Y016931D01*
X024721Y016888D01*
X024670Y016843D01*
X024621Y016794D01*
X024575Y016743D01*
X024532Y016689D01*
D17*
X024580Y018457D03*
X027420Y018457D03*
X019920Y008457D03*
X017080Y008457D03*
X010420Y016457D03*
X007580Y016457D03*
D18*
X007500Y014377D03*
X008500Y014377D03*
X010500Y013377D03*
X012500Y013377D03*
X012500Y010537D03*
X010500Y010537D03*
X008500Y011537D03*
X007500Y011537D03*
D19*
X009020Y020977D02*
X009020Y021438D01*
X009327Y020977D01*
X009327Y021438D01*
X009634Y021438D02*
X009787Y021438D01*
X009711Y021438D02*
X009711Y021054D01*
X009634Y020977D01*
X009557Y020977D01*
X009480Y021054D01*
X009941Y020977D02*
X009941Y021438D01*
X010094Y021284D01*
X010248Y021438D01*
X010248Y020977D01*
X010401Y020977D02*
X010708Y020977D01*
X010555Y020977D02*
X010555Y021438D01*
X010401Y021284D01*
D20*
X007882Y020920D02*
X007882Y020883D01*
X007736Y020883D01*
X007736Y020847D02*
X007736Y020920D01*
X007772Y020957D01*
X007846Y020957D01*
X007882Y020920D01*
X007846Y020810D02*
X007772Y020810D01*
X007736Y020847D01*
X007661Y020810D02*
X007661Y020920D01*
X007625Y020957D01*
X007515Y020957D01*
X007515Y020810D01*
X007441Y020810D02*
X007367Y020810D01*
X007404Y020810D02*
X007404Y020957D01*
X007367Y020957D01*
X007404Y021030D02*
X007404Y021067D01*
X007257Y021030D02*
X007257Y020810D01*
X007293Y020810D02*
X007220Y020810D01*
X007146Y020810D02*
X007109Y020847D01*
X007109Y020993D01*
X007073Y020957D02*
X007146Y020957D01*
X007220Y021030D02*
X007257Y021030D01*
X006998Y020957D02*
X006998Y020810D01*
X006888Y020810D01*
X006852Y020847D01*
X006852Y020957D01*
X006777Y020993D02*
X006741Y021030D01*
X006667Y021030D01*
X006631Y020993D01*
X006631Y020847D01*
X006667Y020810D01*
X006741Y020810D01*
X006777Y020847D01*
X006777Y020993D01*
X006336Y020957D02*
X006262Y020957D01*
X006299Y020993D02*
X006299Y020847D01*
X006336Y020810D01*
X006188Y020810D02*
X006115Y020810D01*
X006152Y020810D02*
X006152Y021030D01*
X006115Y021030D01*
X006041Y020920D02*
X006004Y020957D01*
X005931Y020957D01*
X005894Y020920D01*
X005894Y020847D01*
X005931Y020810D01*
X006004Y020810D01*
X006041Y020847D01*
X006041Y020920D01*
X005820Y020883D02*
X005820Y020847D01*
X005783Y020810D01*
X005673Y020810D01*
X005673Y021030D01*
X005783Y021030D01*
X005820Y020993D01*
X005820Y020957D01*
X005783Y020920D01*
X005673Y020920D01*
X005783Y020920D02*
X005820Y020883D01*
X005378Y020883D02*
X005378Y020847D01*
X005341Y020810D01*
X005268Y020810D01*
X005231Y020847D01*
X005157Y020810D02*
X005157Y021030D01*
X005083Y020957D01*
X005010Y021030D01*
X005010Y020810D01*
X005231Y020993D02*
X005268Y021030D01*
X005341Y021030D01*
X005378Y020993D01*
X005378Y020957D01*
X005341Y020920D01*
X005378Y020883D01*
X005341Y020920D02*
X005304Y020920D01*
X005452Y021819D02*
X005525Y021893D01*
X005489Y021893D01*
X005489Y021929D01*
X005525Y021929D01*
X005525Y021893D01*
X005599Y021929D02*
X005636Y021893D01*
X005709Y021893D01*
X005746Y021929D01*
X005746Y021966D01*
X005709Y022003D01*
X005673Y022003D01*
X005709Y022003D02*
X005746Y022039D01*
X005746Y022076D01*
X005709Y022113D01*
X005636Y022113D01*
X005599Y022076D01*
X005378Y022076D02*
X005378Y022039D01*
X005341Y022003D01*
X005378Y021966D01*
X005378Y021929D01*
X005341Y021893D01*
X005268Y021893D01*
X005231Y021929D01*
X005157Y021929D02*
X005157Y022076D01*
X005120Y022113D01*
X005010Y022113D01*
X005010Y021893D01*
X005120Y021893D01*
X005157Y021929D01*
X005231Y022076D02*
X005268Y022113D01*
X005341Y022113D01*
X005378Y022076D01*
X005341Y022003D02*
X005304Y022003D01*
X005820Y022039D02*
X005857Y022039D01*
X005894Y022003D01*
X005930Y022039D01*
X005967Y022003D01*
X005967Y021893D01*
X005894Y021893D02*
X005894Y022003D01*
X005820Y022039D02*
X005820Y021893D01*
X006041Y021893D02*
X006041Y022039D01*
X006078Y022039D01*
X006115Y022003D01*
X006151Y022039D01*
X006188Y022003D01*
X006188Y021893D01*
X006115Y021893D02*
X006115Y022003D01*
X006483Y022113D02*
X006593Y022113D01*
X006630Y022076D01*
X006630Y021929D01*
X006593Y021893D01*
X006483Y021893D01*
X006483Y022113D01*
X006704Y022039D02*
X006704Y021893D01*
X006704Y021966D02*
X006778Y022039D01*
X006814Y022039D01*
X006888Y022039D02*
X006925Y022039D01*
X006925Y021893D01*
X006888Y021893D02*
X006962Y021893D01*
X007036Y021893D02*
X007109Y021893D01*
X007072Y021893D02*
X007072Y022113D01*
X007036Y022113D01*
X006925Y022113D02*
X006925Y022150D01*
X007183Y022113D02*
X007220Y022113D01*
X007220Y021893D01*
X007256Y021893D02*
X007183Y021893D01*
X026510Y021893D02*
X026620Y021893D01*
X026657Y021929D01*
X026657Y022076D01*
X026620Y022113D01*
X026510Y022113D01*
X026510Y021893D01*
X026731Y021929D02*
X026768Y021893D01*
X026841Y021893D01*
X026878Y021929D01*
X026878Y021966D01*
X026841Y022003D01*
X026804Y022003D01*
X026841Y022003D02*
X026878Y022039D01*
X026878Y022076D01*
X026841Y022113D01*
X026768Y022113D01*
X026731Y022076D01*
X026989Y021929D02*
X026989Y021893D01*
X027025Y021893D01*
X027025Y021929D01*
X026989Y021929D01*
X027025Y021893D02*
X026952Y021819D01*
X027099Y021929D02*
X027136Y021893D01*
X027209Y021893D01*
X027246Y021929D01*
X027246Y021966D01*
X027209Y022003D01*
X027173Y022003D01*
X027209Y022003D02*
X027246Y022039D01*
X027246Y022076D01*
X027209Y022113D01*
X027136Y022113D01*
X027099Y022076D01*
X027320Y022039D02*
X027357Y022039D01*
X027394Y022003D01*
X027430Y022039D01*
X027467Y022003D01*
X027467Y021893D01*
X027394Y021893D02*
X027394Y022003D01*
X027320Y022039D02*
X027320Y021893D01*
X027541Y021893D02*
X027541Y022039D01*
X027578Y022039D01*
X027615Y022003D01*
X027651Y022039D01*
X027688Y022003D01*
X027688Y021893D01*
X027615Y021893D02*
X027615Y022003D01*
X027983Y022113D02*
X028093Y022113D01*
X028130Y022076D01*
X028130Y021929D01*
X028093Y021893D01*
X027983Y021893D01*
X027983Y022113D01*
X028204Y022039D02*
X028204Y021893D01*
X028204Y021966D02*
X028278Y022039D01*
X028314Y022039D01*
X028388Y022039D02*
X028425Y022039D01*
X028425Y021893D01*
X028388Y021893D02*
X028462Y021893D01*
X028536Y021893D02*
X028609Y021893D01*
X028572Y021893D02*
X028572Y022113D01*
X028536Y022113D01*
X028425Y022113D02*
X028425Y022150D01*
X028683Y022113D02*
X028720Y022113D01*
X028720Y021893D01*
X028756Y021893D02*
X028683Y021893D01*
X028904Y021067D02*
X028904Y021030D01*
X028904Y020957D02*
X028904Y020810D01*
X028867Y020810D02*
X028941Y020810D01*
X029015Y020810D02*
X029015Y020957D01*
X029125Y020957D01*
X029161Y020920D01*
X029161Y020810D01*
X029236Y020847D02*
X029272Y020810D01*
X029346Y020810D01*
X029382Y020883D02*
X029236Y020883D01*
X029236Y020847D02*
X029236Y020920D01*
X029272Y020957D01*
X029346Y020957D01*
X029382Y020920D01*
X029382Y020883D01*
X028904Y020957D02*
X028867Y020957D01*
X028757Y021030D02*
X028757Y020810D01*
X028793Y020810D02*
X028720Y020810D01*
X028646Y020810D02*
X028609Y020847D01*
X028609Y020993D01*
X028573Y020957D02*
X028646Y020957D01*
X028720Y021030D02*
X028757Y021030D01*
X028498Y020957D02*
X028498Y020810D01*
X028388Y020810D01*
X028352Y020847D01*
X028352Y020957D01*
X028277Y020993D02*
X028241Y021030D01*
X028167Y021030D01*
X028131Y020993D01*
X028131Y020847D01*
X028167Y020810D01*
X028241Y020810D01*
X028277Y020847D01*
X028277Y020993D01*
X027836Y020957D02*
X027762Y020957D01*
X027799Y020993D02*
X027799Y020847D01*
X027836Y020810D01*
X027688Y020810D02*
X027615Y020810D01*
X027652Y020810D02*
X027652Y021030D01*
X027615Y021030D01*
X027541Y020920D02*
X027504Y020957D01*
X027431Y020957D01*
X027394Y020920D01*
X027394Y020847D01*
X027431Y020810D01*
X027504Y020810D01*
X027541Y020847D01*
X027541Y020920D01*
X027320Y020883D02*
X027320Y020847D01*
X027283Y020810D01*
X027173Y020810D01*
X027173Y021030D01*
X027283Y021030D01*
X027320Y020993D01*
X027320Y020957D01*
X027283Y020920D01*
X027173Y020920D01*
X027283Y020920D02*
X027320Y020883D01*
X026878Y020883D02*
X026878Y020847D01*
X026841Y020810D01*
X026768Y020810D01*
X026731Y020847D01*
X026657Y020810D02*
X026657Y021030D01*
X026583Y020957D01*
X026510Y021030D01*
X026510Y020810D01*
X026731Y020993D02*
X026768Y021030D01*
X026841Y021030D01*
X026878Y020993D01*
X026878Y020957D01*
X026841Y020920D01*
X026878Y020883D01*
X026841Y020920D02*
X026804Y020920D01*
X026768Y001613D02*
X026731Y001576D01*
X026768Y001613D02*
X026841Y001613D01*
X026878Y001576D01*
X026878Y001539D01*
X026841Y001503D01*
X026878Y001466D01*
X026878Y001429D01*
X026841Y001393D01*
X026768Y001393D01*
X026731Y001429D01*
X026657Y001429D02*
X026657Y001576D01*
X026620Y001613D01*
X026510Y001613D01*
X026510Y001393D01*
X026620Y001393D01*
X026657Y001429D01*
X026804Y001503D02*
X026841Y001503D01*
X026989Y001429D02*
X026989Y001393D01*
X027025Y001393D01*
X027025Y001429D01*
X026989Y001429D01*
X027025Y001393D02*
X026952Y001319D01*
X027099Y001429D02*
X027136Y001393D01*
X027209Y001393D01*
X027246Y001429D01*
X027246Y001466D01*
X027209Y001503D01*
X027173Y001503D01*
X027209Y001503D02*
X027246Y001539D01*
X027246Y001576D01*
X027209Y001613D01*
X027136Y001613D01*
X027099Y001576D01*
X027320Y001539D02*
X027357Y001539D01*
X027394Y001503D01*
X027430Y001539D01*
X027467Y001503D01*
X027467Y001393D01*
X027394Y001393D02*
X027394Y001503D01*
X027320Y001539D02*
X027320Y001393D01*
X027541Y001393D02*
X027541Y001539D01*
X027578Y001539D01*
X027615Y001503D01*
X027651Y001539D01*
X027688Y001503D01*
X027688Y001393D01*
X027615Y001393D02*
X027615Y001503D01*
X027983Y001613D02*
X027983Y001393D01*
X028093Y001393D01*
X028130Y001429D01*
X028130Y001576D01*
X028093Y001613D01*
X027983Y001613D01*
X028204Y001539D02*
X028204Y001393D01*
X028204Y001466D02*
X028278Y001539D01*
X028314Y001539D01*
X028388Y001539D02*
X028425Y001539D01*
X028425Y001393D01*
X028388Y001393D02*
X028462Y001393D01*
X028536Y001393D02*
X028609Y001393D01*
X028572Y001393D02*
X028572Y001613D01*
X028536Y001613D01*
X028425Y001613D02*
X028425Y001650D01*
X028683Y001613D02*
X028720Y001613D01*
X028720Y001393D01*
X028756Y001393D02*
X028683Y001393D01*
X028904Y000567D02*
X028904Y000530D01*
X028904Y000457D02*
X028904Y000310D01*
X028867Y000310D02*
X028941Y000310D01*
X029015Y000310D02*
X029015Y000457D01*
X029125Y000457D01*
X029161Y000420D01*
X029161Y000310D01*
X029236Y000347D02*
X029236Y000420D01*
X029272Y000457D01*
X029346Y000457D01*
X029382Y000420D01*
X029382Y000383D01*
X029236Y000383D01*
X029236Y000347D02*
X029272Y000310D01*
X029346Y000310D01*
X028904Y000457D02*
X028867Y000457D01*
X028757Y000530D02*
X028757Y000310D01*
X028793Y000310D02*
X028720Y000310D01*
X028646Y000310D02*
X028609Y000347D01*
X028609Y000493D01*
X028573Y000457D02*
X028646Y000457D01*
X028720Y000530D02*
X028757Y000530D01*
X028498Y000457D02*
X028498Y000310D01*
X028388Y000310D01*
X028352Y000347D01*
X028352Y000457D01*
X028277Y000493D02*
X028241Y000530D01*
X028167Y000530D01*
X028131Y000493D01*
X028131Y000347D01*
X028167Y000310D01*
X028241Y000310D01*
X028277Y000347D01*
X028277Y000493D01*
X027836Y000457D02*
X027762Y000457D01*
X027799Y000493D02*
X027799Y000347D01*
X027836Y000310D01*
X027688Y000310D02*
X027615Y000310D01*
X027652Y000310D02*
X027652Y000530D01*
X027615Y000530D01*
X027541Y000420D02*
X027504Y000457D01*
X027431Y000457D01*
X027394Y000420D01*
X027394Y000347D01*
X027431Y000310D01*
X027504Y000310D01*
X027541Y000347D01*
X027541Y000420D01*
X027320Y000383D02*
X027320Y000347D01*
X027283Y000310D01*
X027173Y000310D01*
X027173Y000530D01*
X027283Y000530D01*
X027320Y000493D01*
X027320Y000457D01*
X027283Y000420D01*
X027173Y000420D01*
X027283Y000420D02*
X027320Y000383D01*
X026878Y000383D02*
X026878Y000347D01*
X026841Y000310D01*
X026768Y000310D01*
X026731Y000347D01*
X026657Y000310D02*
X026657Y000530D01*
X026583Y000457D01*
X026510Y000530D01*
X026510Y000310D01*
X026731Y000493D02*
X026768Y000530D01*
X026841Y000530D01*
X026878Y000493D01*
X026878Y000457D01*
X026841Y000420D01*
X026878Y000383D01*
X026841Y000420D02*
X026804Y000420D01*
X007882Y000420D02*
X007882Y000383D01*
X007736Y000383D01*
X007736Y000347D02*
X007736Y000420D01*
X007772Y000457D01*
X007846Y000457D01*
X007882Y000420D01*
X007846Y000310D02*
X007772Y000310D01*
X007736Y000347D01*
X007661Y000310D02*
X007661Y000420D01*
X007625Y000457D01*
X007515Y000457D01*
X007515Y000310D01*
X007441Y000310D02*
X007367Y000310D01*
X007404Y000310D02*
X007404Y000457D01*
X007367Y000457D01*
X007404Y000530D02*
X007404Y000567D01*
X007257Y000530D02*
X007257Y000310D01*
X007293Y000310D02*
X007220Y000310D01*
X007146Y000310D02*
X007109Y000347D01*
X007109Y000493D01*
X007073Y000457D02*
X007146Y000457D01*
X007220Y000530D02*
X007257Y000530D01*
X006998Y000457D02*
X006998Y000310D01*
X006888Y000310D01*
X006852Y000347D01*
X006852Y000457D01*
X006777Y000493D02*
X006741Y000530D01*
X006667Y000530D01*
X006631Y000493D01*
X006631Y000347D01*
X006667Y000310D01*
X006741Y000310D01*
X006777Y000347D01*
X006777Y000493D01*
X006336Y000457D02*
X006262Y000457D01*
X006299Y000493D02*
X006299Y000347D01*
X006336Y000310D01*
X006188Y000310D02*
X006115Y000310D01*
X006152Y000310D02*
X006152Y000530D01*
X006115Y000530D01*
X006041Y000420D02*
X006004Y000457D01*
X005931Y000457D01*
X005894Y000420D01*
X005894Y000347D01*
X005931Y000310D01*
X006004Y000310D01*
X006041Y000347D01*
X006041Y000420D01*
X005820Y000383D02*
X005820Y000347D01*
X005783Y000310D01*
X005673Y000310D01*
X005673Y000530D01*
X005783Y000530D01*
X005820Y000493D01*
X005820Y000457D01*
X005783Y000420D01*
X005673Y000420D01*
X005783Y000420D02*
X005820Y000383D01*
X005378Y000383D02*
X005378Y000347D01*
X005341Y000310D01*
X005268Y000310D01*
X005231Y000347D01*
X005157Y000310D02*
X005157Y000530D01*
X005083Y000457D01*
X005010Y000530D01*
X005010Y000310D01*
X005231Y000493D02*
X005268Y000530D01*
X005341Y000530D01*
X005378Y000493D01*
X005378Y000457D01*
X005341Y000420D01*
X005378Y000383D01*
X005341Y000420D02*
X005304Y000420D01*
X005452Y001319D02*
X005525Y001393D01*
X005489Y001393D01*
X005489Y001429D01*
X005525Y001429D01*
X005525Y001393D01*
X005599Y001429D02*
X005636Y001393D01*
X005709Y001393D01*
X005746Y001429D01*
X005746Y001466D01*
X005709Y001503D01*
X005673Y001503D01*
X005709Y001503D02*
X005746Y001539D01*
X005746Y001576D01*
X005709Y001613D01*
X005636Y001613D01*
X005599Y001576D01*
X005378Y001576D02*
X005378Y001539D01*
X005341Y001503D01*
X005378Y001466D01*
X005378Y001429D01*
X005341Y001393D01*
X005268Y001393D01*
X005231Y001429D01*
X005157Y001429D02*
X005157Y001576D01*
X005120Y001613D01*
X005010Y001613D01*
X005010Y001393D01*
X005120Y001393D01*
X005157Y001429D01*
X005231Y001576D02*
X005268Y001613D01*
X005341Y001613D01*
X005378Y001576D01*
X005341Y001503D02*
X005304Y001503D01*
X005820Y001539D02*
X005857Y001539D01*
X005894Y001503D01*
X005930Y001539D01*
X005967Y001503D01*
X005967Y001393D01*
X005894Y001393D02*
X005894Y001503D01*
X005820Y001539D02*
X005820Y001393D01*
X006041Y001393D02*
X006041Y001539D01*
X006078Y001539D01*
X006115Y001503D01*
X006151Y001539D01*
X006188Y001503D01*
X006188Y001393D01*
X006115Y001393D02*
X006115Y001503D01*
X006483Y001613D02*
X006593Y001613D01*
X006630Y001576D01*
X006630Y001429D01*
X006593Y001393D01*
X006483Y001393D01*
X006483Y001613D01*
X006704Y001539D02*
X006704Y001393D01*
X006704Y001466D02*
X006778Y001539D01*
X006814Y001539D01*
X006888Y001539D02*
X006925Y001539D01*
X006925Y001393D01*
X006888Y001393D02*
X006962Y001393D01*
X007036Y001393D02*
X007109Y001393D01*
X007072Y001393D02*
X007072Y001613D01*
X007036Y001613D01*
X006925Y001613D02*
X006925Y001650D01*
X007183Y001613D02*
X007220Y001613D01*
X007220Y001393D01*
X007256Y001393D02*
X007183Y001393D01*
D21*
X009750Y020457D03*
M02*
