%
M48
M72
T01C0.0315
T02C0.0394
T03C0.0472
%
T01
X1357Y3687
X1357Y4687
X1357Y5687
X1357Y6687
X1357Y7687
X1357Y8687
X1357Y9687
X1357Y10687
X6125Y18088
X7125Y18088
X8125Y18088
X9125Y18088
X10125Y18088
X11125Y18088
X12125Y18088
X13125Y18088
X14590Y18088
X15590Y18088
X16590Y18088
X17590Y18088
X18590Y18088
X19590Y18088
X20590Y18088
X21590Y18088
X21590Y21088
X20590Y21088
X19590Y21088
X18590Y21088
X17590Y21088
X16590Y21088
X15590Y21088
X14590Y21088
X13125Y21088
X12125Y21088
X11125Y21088
X10125Y21088
X9125Y21088
X8125Y21088
X7125Y21088
X6125Y21088
X10456Y25691
X11456Y25691
X12456Y25691
X13456Y25691
X14456Y25691
X15456Y25691
X16456Y25691
X17456Y25691
X26554Y10687
X26554Y9687
X26554Y8687
X26554Y7687
X26554Y6687
X26554Y5687
X26554Y4687
X26554Y3687
T02
X15727Y3643
X15727Y6596
X14078Y15061
X14546Y16832
X16515Y17423
X17499Y15651
X18361Y15061
X20452Y16242
X21361Y15061
X20649Y21754
X19467Y22935
X17499Y22344
X15334Y22935
X14349Y22344
X11200Y16832
X12125Y16242
X11078Y15061
X10019Y16242
X8247Y15651
X8247Y17423
X6278Y16242
X5294Y16242
X1751Y21647
X1751Y22647
X6278Y21754
X5294Y5021
T03
X11121Y5572
X11121Y7541
X14074Y7541
X14074Y5572
X14074Y3604
X11121Y3604
X17696Y1281
X18404Y3604
X18404Y5572
X18404Y7541
X21357Y7541
X21357Y5572
X21357Y3604
X21633Y1281
X21357Y13446
X18404Y13446
X14074Y13446
X11121Y13446
M30
