%
M48
M72
T01C0.0315
T02C0.0394
T03C0.0472
T04C0.0630
%
T01
X1357Y3687
X1357Y4687
X1357Y5687
X1357Y6687
X1357Y7687
X1357Y8687
X1357Y9687
X1357Y10687
X11676Y21600
X12676Y21600
X13676Y21600
X13456Y25691
X12456Y25691
X11456Y25691
X10456Y25691
X14456Y25691
X15456Y25691
X16456Y25691
X17456Y25691
X20676Y18600
X20676Y17600
X22676Y17700
X22676Y18500
X25676Y18500
X25676Y17700
X26554Y10687
X26554Y9687
X26554Y8687
X26554Y7687
X26554Y6687
X26554Y5687
X26554Y4687
X26554Y3687
T02
X19676Y15600
X17676Y16513
X16676Y16513
X15676Y16513
X14676Y16513
X13676Y16513
X12676Y16513
X11676Y16513
X10676Y16513
X9676Y16513
X8444Y16635
X7176Y17600
X9676Y19513
X10676Y19513
X11676Y19513
X12676Y19513
X13676Y19513
X14676Y19513
X15676Y19513
X16676Y19513
X17676Y19513
X19676Y22100
X19676Y23100
X22239Y23100
X23027Y23100
X23814Y23100
X24601Y23100
X26176Y23100
X26176Y25659
X24601Y25659
X23814Y25659
X23027Y25659
X22239Y25659
X23176Y20600
X24176Y20600
X25176Y20600
X15676Y24100
X13676Y24100
X12676Y23100
X8444Y25691
X7176Y26600
X3176Y23600
X3176Y22600
T03
X10176Y11600
X13176Y11600
X13176Y4600
X10176Y4600
X16208Y1600
X20145Y1600
X20176Y4600
X23176Y4600
X23176Y11600
X20176Y11600
T04
X5676Y12817
X5676Y5100
M30
