%
M48
M72
T01C0.0315
T02C0.0472
%
T01
X1405Y4363
X1405Y5363
X1405Y6363
X1405Y7363
X1405Y8363
X1405Y9363
X1405Y10363
X1405Y11363
X10503Y26367
X11503Y26367
X12503Y26367
X13503Y26367
X14503Y26367
X15503Y26367
X16503Y26367
X17503Y26367
X26601Y11363
X26601Y10363
X26601Y9363
X26601Y8363
X26601Y7363
X26601Y6363
X26601Y5363
X26601Y4363
T02
X1405Y1957
X26601Y1957
X26601Y27154
X1405Y27154
M30
