%
M48
M72
T01C0.0315
T02C0.0394
T03C0.0472
%
T01
X1405Y4363
X1405Y5363
X1405Y6363
X1405Y7363
X1405Y8363
X1405Y9363
X1405Y10363
X1405Y11363
X6223Y18776
X7223Y18776
X8223Y18776
X9223Y18776
X10223Y18776
X11223Y18776
X12223Y18776
X13223Y18776
X14723Y18776
X15723Y18776
X16723Y18776
X17723Y18776
X18723Y18776
X19723Y18776
X20723Y18776
X21723Y18776
X21723Y21776
X20723Y21776
X19723Y21776
X18723Y21776
X17723Y21776
X16723Y21776
X15723Y21776
X14723Y21776
X13223Y21776
X12223Y21776
X11223Y21776
X10223Y21776
X9223Y21776
X8223Y21776
X7223Y21776
X6223Y21776
X10503Y26367
X11503Y26367
X12503Y26367
X13503Y26367
X14503Y26367
X15503Y26367
X16503Y26367
X17503Y26367
X26601Y11363
X26601Y10363
X26601Y9363
X26601Y8363
X26601Y7363
X26601Y6363
X26601Y5363
X26601Y4363
T02
X15723Y4276
X15723Y7276
X14223Y15776
X14723Y17276
X16723Y17776
X17723Y16276
X18723Y15776
X20723Y16776
X21723Y15776
X20723Y22476
X19723Y23476
X17723Y22976
X15723Y23476
X14723Y22976
X11223Y17276
X10223Y16776
X11223Y15776
X12223Y16776
X8223Y16276
X8223Y17776
X6223Y16776
X5223Y17776
X6223Y22476
X1798Y22324
X1798Y23324
X5223Y5776
T03
X1405Y1957
X11267Y4422
X11267Y6391
X11267Y8359
X14219Y8359
X14219Y6391
X14219Y4422
X18255Y2276
X18767Y4422
X18767Y6391
X18767Y8359
X21719Y8359
X21719Y6391
X21719Y4422
X22192Y2276
X26601Y1957
X21719Y14265
X18767Y14265
X14219Y14265
X11267Y14265
X1405Y27154
X26601Y27154
M30
