%
M48
M72
T01C0.0315
T02C0.0394
T03C0.0472
%
T01
X1405Y4363
X1405Y5363
X1405Y6363
X1405Y7363
X1405Y8363
X1405Y9363
X1405Y10363
X1405Y11363
X6172Y18765
X7172Y18765
X8172Y18765
X9172Y18765
X10172Y18765
X11172Y18765
X12172Y18765
X13172Y18765
X14637Y18765
X15637Y18765
X16637Y18765
X17637Y18765
X18637Y18765
X19637Y18765
X20637Y18765
X21637Y18765
X21637Y21765
X20637Y21765
X19637Y21765
X18637Y21765
X17637Y21765
X16637Y21765
X15637Y21765
X14637Y21765
X13172Y21765
X12172Y21765
X11172Y21765
X10172Y21765
X9172Y21765
X8172Y21765
X7172Y21765
X6172Y21765
X10503Y26367
X11503Y26367
X12503Y26367
X13503Y26367
X14503Y26367
X15503Y26367
X16503Y26367
X17503Y26367
X26601Y11363
X26601Y10363
X26601Y9363
X26601Y8363
X26601Y7363
X26601Y6363
X26601Y5363
X26601Y4363
T02
X15775Y4320
X15775Y7272
X14125Y15737
X14594Y17509
X16562Y18099
X17546Y16328
X18408Y15737
X20499Y16918
X21408Y15737
X20696Y22430
X19515Y23611
X17546Y23020
X15381Y23611
X14397Y23020
X11247Y17509
X12172Y16918
X11125Y15737
X10066Y16918
X8294Y16328
X8294Y18099
X6326Y16918
X5342Y16918
X6326Y22430
X1798Y22324
X1798Y23324
X5342Y5698
T03
X1405Y1957
X11168Y4280
X11168Y6249
X11168Y8217
X14121Y8217
X14121Y6249
X14121Y4280
X17743Y1957
X18452Y4280
X18452Y6249
X18452Y8217
X21405Y8217
X21405Y6249
X21405Y4280
X21680Y1957
X26601Y1957
X21405Y14123
X18452Y14123
X14121Y14123
X11168Y14123
X1405Y27154
X26601Y27154
M30
