%
M48
M72
T01C0.0315
T02C0.0394
T03C0.0472
T04C0.0630
%
T01
X1357Y3687
X1357Y4687
X1357Y5687
X1357Y6687
X1357Y7687
X1357Y8687
X1357Y9687
X1357Y10687
X11971Y21557
X12971Y21557
X13971Y21557
X14456Y25691
X15456Y25691
X16456Y25691
X17456Y25691
X13456Y25691
X12456Y25691
X11456Y25691
X10456Y25691
X20649Y18513
X20649Y17513
X22617Y17613
X22617Y18413
X24782Y18413
X24782Y17613
X26554Y10687
X26554Y9687
X26554Y8687
X26554Y7687
X26554Y6687
X26554Y5687
X26554Y4687
X26554Y3687
T02
X19467Y15848
X17956Y16513
X16956Y16513
X15956Y16513
X14956Y16513
X13956Y16513
X12956Y16513
X11956Y16513
X10956Y16513
X9956Y16513
X8444Y16635
X7263Y17423
X9956Y19513
X10956Y19513
X11956Y19513
X12956Y19513
X13956Y19513
X14956Y19513
X15956Y19513
X16956Y19513
X17956Y19513
X19467Y21950
X19467Y23525
X22223Y22935
X23011Y22935
X23798Y22935
X24586Y22935
X26160Y22935
X26160Y25494
X24586Y25494
X23798Y25494
X23011Y25494
X22223Y25494
X22798Y20179
X23798Y20179
X24798Y20179
X15924Y24313
X13562Y24313
X12971Y23525
X8444Y25691
X7263Y26675
X2932Y24025
X2932Y23025
T03
X10215Y11671
X13015Y11714
X20015Y11714
X23011Y11671
X23011Y4671
X20015Y4628
X20058Y1675
X16121Y1675
X13015Y4628
X10215Y4671
T04
X5688Y5218
X5688Y12935
M30
