%
M48
M72
T01C0.0315
%
T01
X1357Y3687
X1357Y4687
X1357Y5687
X1357Y6687
X1357Y7687
X1357Y8687
X1357Y9687
X1357Y10687
X10456Y25691
X11456Y25691
X12456Y25691
X13456Y25691
X14456Y25691
X15456Y25691
X16456Y25691
X17456Y25691
X26554Y10687
X26554Y9687
X26554Y8687
X26554Y7687
X26554Y6687
X26554Y5687
X26554Y4687
X26554Y3687
M30
