%
M48
M72
T01C0.0394
%
T01
X13100Y6600
X14100Y6600
X15100Y6600
X16100Y6600
X17100Y6600
X18100Y6600
X19100Y6600
X20100Y6600
X21100Y6600
X22100Y6600
X19600Y10600
X19600Y11600
X19600Y12600
X19600Y13600
X25100Y13600
X25100Y12600
X25100Y11600
X25100Y10600
X30600Y10600
X30600Y11600
X30600Y12600
X30600Y13600
X14100Y13600
X14100Y12600
X14100Y11600
X14100Y10600
X8600Y10600
X8600Y11600
X8600Y12600
X8600Y13600
X3100Y13600
X3100Y12600
X3100Y11600
X3100Y10600
M30
