%
M48
M72
T01C0.0315
T02C0.0394
T03C0.0472
%
T01
X5723Y6776
X8223Y9276
X9223Y9276
X9723Y6776
X11223Y6776
X12223Y6776
X14223Y7276
X17223Y6276
X18223Y7276
X19223Y8776
X20223Y8776
X21223Y8776
X22723Y7776
X21223Y6276
X24723Y7276
X26223Y6776
X27223Y7776
X29223Y7276
X33723Y10276
X34723Y10276
X35723Y13276
X31723Y13276
X29723Y14276
X28723Y15276
X27723Y14276
X26723Y15276
X26723Y11276
X20223Y14276
X20223Y15276
X18223Y19276
X17223Y19276
X16223Y19276
X15223Y19276
X14223Y19276
X13223Y19276
X12223Y19276
X12223Y23276
X13223Y23276
X14223Y23276
X15223Y23276
X16223Y23276
X17223Y23276
X18223Y23276
X6723Y21776
X6723Y19276
X5723Y17776
X6723Y16776
X6723Y15776
X4723Y14276
X4723Y13276
X6223Y12276
X7223Y12276
X8223Y13776
X9223Y13776
X4723Y11276
X4723Y10276
X2723Y15776
X2723Y16776
X723Y17776
X1723Y25276
X2723Y25276
X3723Y25276
X3723Y30276
X2723Y30276
X1723Y30276
X26223Y2776
T02
X25223Y4776
X24223Y4776
X23223Y4776
X21223Y5276
X21223Y3276
X18223Y3276
X16723Y3276
X16723Y5276
X18223Y5276
X13723Y5276
X13723Y3276
X13223Y9776
X14223Y9776
X15223Y9776
X16223Y9776
X17223Y9776
X18223Y9776
X19223Y9776
X20223Y9776
X21223Y9776
X22223Y9776
X23223Y9776
X24223Y9776
X24223Y12776
X23223Y12776
X22223Y12776
X21223Y12776
X20223Y12776
X19223Y12776
X18223Y12776
X17223Y12776
X16223Y12776
X15223Y12776
X14223Y12776
X13223Y12776
X12223Y12776
X11223Y12776
X11223Y9776
X12223Y9776
X4723Y5276
X3723Y5276
X2223Y11776
X2223Y12776
X2223Y13776
X4582Y20276
X5582Y20276
X5582Y21276
X5582Y22276
X4582Y22276
X4582Y21276
X4582Y23276
X5582Y23276
X5582Y24276
X4582Y24276
X4582Y25276
X5582Y25276
X5582Y26276
X4582Y26276
X27223Y4776
X28223Y4776
X29223Y4776
X37723Y13776
X37723Y14776
T03
X1405Y1957
X2223Y7276
X2223Y8276
X2223Y9276
X8082Y18552
X8082Y28001
X1405Y33454
X31723Y11776
X31723Y10776
X31723Y9776
X39987Y1957
X40365Y18552
X40365Y28001
X39987Y33454
M30
