%
M48
M72
T01C0.0315
T02C0.0394
T03C0.0472
%
T01
X5970Y3600
X7470Y3600
X8970Y3600
X11470Y3100
X11470Y4100
X14970Y4100
X14970Y3100
X18470Y3100
X18470Y4100
X8970Y7600
X7470Y7600
X5970Y7600
X8470Y9600
X8470Y10600
X8470Y12600
X8470Y13600
X13470Y13100
X14470Y13100
X15470Y13100
X18470Y13100
X18470Y12100
T02
X18470Y11100
X17470Y11100
X16470Y11100
X15470Y11100
X14470Y11100
X13470Y11100
X12470Y11100
X12470Y8100
X13470Y8100
X14470Y8100
X15470Y8100
X16470Y8100
X17470Y8100
X18470Y8100
X19470Y8100
X20470Y8100
X21470Y5600
X22470Y5600
X23470Y5600
X24470Y5600
X20470Y11100
X19470Y11100
X18470Y15600
X18470Y16600
X18470Y17600
X12970Y17600
X12970Y16600
X12970Y15600
X7470Y15600
X7470Y16600
X7470Y17600
X5470Y12600
X5470Y11600
X5470Y10600
X3970Y5600
X3970Y4600
X23970Y15600
X23970Y16600
X23970Y17600
T03
X1545Y1478
X2470Y8600
X2470Y9600
X2470Y10600
X1545Y17620
X27135Y17620
X27135Y1478
M30
